<svg width="32" height="32" viewBox="0 0 32 32" fill="none" xmlns="http://www.w3.org/2000/svg">
<g id="&#228;&#184;&#170;&#228;&#186;&#186;&#232;&#181;&#132;&#230;&#150;&#153;">
<path id="Subtract" fill-rule="evenodd" clip-rule="evenodd" d="M24.2086 25.9132C22.0623 23.8998 19.1753 22.6667 16.0002 22.6667C12.8252 22.6667 9.93812 23.8998 7.79185 25.9132L5.14062 24.8085C7.82368 21.8546 11.6954 20 16.0002 20C20.3051 20 24.1768 21.8546 26.8598 24.8085L24.2086 25.9132Z" fill="black"/>
<path id="Ellipse 576 (Stroke)" fill-rule="evenodd" clip-rule="evenodd" d="M16.0002 14.6667C18.2093 14.6667 20.0002 12.8758 20.0002 10.6667C20.0002 8.45753 18.2093 6.66667 16.0002 6.66667C13.791 6.66667 12.0002 8.45753 12.0002 10.6667C12.0002 12.8758 13.791 14.6667 16.0002 14.6667ZM16.0002 17.3333C19.6821 17.3333 22.6668 14.3486 22.6668 10.6667C22.6668 6.98477 19.6821 4 16.0002 4C12.3183 4 9.3335 6.98477 9.3335 10.6667C9.3335 14.3486 12.3183 17.3333 16.0002 17.3333Z" fill="black"/>
</g>
</svg>
