<svg width="80" height="80" viewBox="0 0 80 80" fill="none" xmlns="http://www.w3.org/2000/svg">
<path fill-rule="evenodd" clip-rule="evenodd" d="M30.0798 18.1039L31.064 21.628C27.0881 22.5999 20.3108 26.8409 17.7225 33.114C14.1393 41.7983 16.3779 51.7508 22.2954 57.8532C24.3689 59.9915 26.6526 61.5234 29.164 62.6017L29.2161 63.4942L29.3716 66.1605L27.1709 68.8268L27.7543 72.0322H33.9589L33.3322 69.3659L35.5328 66.6996L35.3963 64.3585C37.9031 64.7677 40.5934 64.9216 43.479 64.9216C45.19 64.9216 47.0877 64.5464 49.0336 63.9427L49.163 66.1605L46.9623 68.8268L47.5457 72.0322H53.7503L53.1236 69.3659L55.3242 66.6996L55.0224 61.5234C60.8853 58.6901 65.8542 55.1143 65.8542 55.1143C65.059 52.6403 64.2638 49.0178 63.557 45.572C63.368 44.6509 63.1804 43.7015 62.9912 42.7449L62.9912 42.7448C62.4728 40.1227 61.9436 37.446 61.3481 35.1462C58.7858 25.2505 47.174 21.6869 42.5501 21.0095L33.8049 15.3604C31.8923 14.125 29.4674 15.9109 30.0798 18.1039Z" fill="#E5E5EA" fill-opacity="0.4"/>
<path d="M31.064 21.628L31.3014 22.5994L32.305 22.354L32.0271 21.359L31.064 21.628ZM30.0798 18.1039L29.1167 18.3729V18.3729L30.0798 18.1039ZM17.7225 33.114L16.7981 32.7326L17.7225 33.114ZM22.2954 57.8532L21.5775 58.5494L22.2954 57.8532ZM29.164 62.6017L30.1623 62.5435L30.1263 61.9266L29.5585 61.6828L29.164 62.6017ZM29.2161 63.4942L28.2178 63.5524L29.2161 63.4942ZM29.3716 66.1605L30.1428 66.7971L30.3927 66.4943L30.3699 66.1023L29.3716 66.1605ZM27.1709 68.8268L26.3997 68.1903L26.1039 68.5487L26.1871 69.0059L27.1709 68.8268ZM27.7543 72.0322L26.7704 72.2112L26.9198 73.0322H27.7543V72.0322ZM33.9589 72.0322V73.0322H35.2212L34.9324 71.8033L33.9589 72.0322ZM33.3322 69.3659L32.561 68.7293L32.2453 69.1118L32.3587 69.5947L33.3322 69.3659ZM35.5328 66.6996L36.3041 67.3361L36.554 67.0333L36.5311 66.6413L35.5328 66.6996ZM35.3963 64.3585L35.5574 63.3716L34.3253 63.1705L34.398 64.4168L35.3963 64.3585ZM49.0336 63.9427L50.0319 63.8845L49.9575 62.6091L48.7373 62.9876L49.0336 63.9427ZM49.163 66.1605L49.9342 66.7971L50.1841 66.4943L50.1613 66.1023L49.163 66.1605ZM46.9623 68.8268L46.1911 68.1903L45.8953 68.5487L45.9785 69.0059L46.9623 68.8268ZM47.5457 72.0322L46.5618 72.2112L46.7112 73.0322H47.5457V72.0322ZM53.7503 72.0322V73.0322H55.0126L54.7238 71.8033L53.7503 72.0322ZM53.1236 69.3659L52.3524 68.7293L52.0367 69.1119L52.1502 69.5947L53.1236 69.3659ZM55.3242 66.6996L56.0955 67.3361L56.3454 67.0333L56.3225 66.6413L55.3242 66.6996ZM55.0224 61.5234L54.5873 60.623L53.9851 60.914L54.0241 61.5816L55.0224 61.5234ZM65.8542 55.1143L66.4383 55.9259L67.0289 55.5009L66.8062 54.8082L65.8542 55.1143ZM63.557 45.572L62.5774 45.7729V45.7729L63.557 45.572ZM62.9912 42.7449L62.0074 42.9238L62.0087 42.9314L62.0102 42.9389L62.9912 42.7449ZM62.9912 42.7448L63.9751 42.5659L63.9737 42.5584L63.9722 42.5508L62.9912 42.7448ZM61.3481 35.1462L60.38 35.3968V35.3968L61.3481 35.1462ZM42.5501 21.0095L42.0075 21.8495L42.1901 21.9674L42.4051 21.9989L42.5501 21.0095ZM33.8049 15.3604L34.3475 14.5204L33.8049 15.3604ZM32.0271 21.359L31.0429 17.835L29.1167 18.3729L30.1008 21.8969L32.0271 21.359ZM18.6469 33.4954C19.8569 30.5629 22.0668 28.0642 24.4888 26.1709C26.9163 24.2733 29.4784 23.045 31.3014 22.5994L30.8265 20.6566C28.6737 21.1828 25.8592 22.561 23.257 24.5952C20.6493 26.6336 18.1765 29.3919 16.7981 32.7326L18.6469 33.4954ZM23.0133 57.1571C17.3681 51.3354 15.2184 41.8048 18.6469 33.4954L16.7981 32.7326C13.0602 41.7918 15.3877 52.1662 21.5775 58.5494L23.0133 57.1571ZM29.5585 61.6828C27.1664 60.6557 24.9932 59.1988 23.0133 57.1571L21.5775 58.5494C23.7447 60.7843 26.1389 62.3911 28.7695 63.5206L29.5585 61.6828ZM30.2144 63.436L30.1623 62.5435L28.1657 62.6599L28.2178 63.5524L30.2144 63.436ZM30.3699 66.1023L30.2144 63.436L28.2178 63.5524L28.3733 66.2187L30.3699 66.1023ZM27.9422 69.4634L30.1428 66.7971L28.6003 65.524L26.3997 68.1903L27.9422 69.4634ZM28.7381 71.8531L28.1548 68.6478L26.1871 69.0059L26.7704 72.2112L28.7381 71.8531ZM33.9589 71.0322H27.7543V73.0322H33.9589V71.0322ZM32.3587 69.5947L32.9855 72.261L34.9324 71.8033L34.3057 69.137L32.3587 69.5947ZM34.7616 66.063L32.561 68.7293L34.1035 70.0024L36.3041 67.3361L34.7616 66.063ZM34.398 64.4168L34.5345 66.7578L36.5311 66.6413L36.3946 64.3003L34.398 64.4168ZM43.479 63.9216C40.6263 63.9216 37.9935 63.7693 35.5574 63.3716L35.2352 65.3455C37.8126 65.7662 40.5605 65.9216 43.479 65.9216V63.9216ZM48.7373 62.9876C46.8459 63.5744 45.0538 63.9216 43.479 63.9216V65.9216C45.3262 65.9216 47.3295 65.5184 49.3299 64.8978L48.7373 62.9876ZM50.1613 66.1023L50.0319 63.8845L48.0353 64.0009L48.1647 66.2187L50.1613 66.1023ZM47.7336 69.4634L49.9342 66.7971L48.3917 65.524L46.1911 68.1903L47.7336 69.4634ZM48.5295 71.8531L47.9462 68.6478L45.9785 69.0059L46.5618 72.2112L48.5295 71.8531ZM53.7503 71.0322H47.5457V73.0322H53.7503V71.0322ZM52.1502 69.5947L52.7769 72.261L54.7238 71.8033L54.0971 69.137L52.1502 69.5947ZM54.553 66.063L52.3524 68.7293L53.8949 70.0024L56.0955 67.3361L54.553 66.063ZM54.0241 61.5816L54.3259 66.7578L56.3225 66.6413L56.0207 61.4652L54.0241 61.5816ZM65.8542 55.1143C65.2701 54.3026 65.2701 54.3025 65.2702 54.3025C65.2702 54.3025 65.2702 54.3025 65.2702 54.3025C65.2701 54.3026 65.27 54.3027 65.2698 54.3028C65.2694 54.3031 65.2687 54.3036 65.2676 54.3043C65.2656 54.3058 65.2624 54.3081 65.258 54.3112C65.2492 54.3175 65.2358 54.3271 65.2177 54.34C65.1815 54.3657 65.127 54.4043 65.0551 54.4547C64.9113 54.5555 64.6981 54.7036 64.4234 54.8906C63.874 55.2647 63.0793 55.7939 62.1027 56.411C60.1471 57.6468 57.4735 59.2282 54.5873 60.623L55.4575 62.4238C58.4341 60.9853 61.1765 59.3621 63.1711 58.1017C64.1696 57.4707 64.9835 56.9288 65.549 56.5439C65.8317 56.3514 66.0526 56.198 66.2034 56.0922C66.2788 56.0393 66.3368 55.9983 66.3763 55.9702C66.396 55.9562 66.4111 55.9454 66.4215 55.938C66.4267 55.9343 66.4307 55.9314 66.4335 55.9294C66.4349 55.9284 66.436 55.9276 66.4368 55.927C66.4372 55.9267 66.4375 55.9265 66.4378 55.9263C66.4379 55.9262 66.4381 55.9261 66.4381 55.9261C66.4382 55.926 66.4383 55.9259 65.8542 55.1143ZM62.5774 45.7729C63.2829 49.2122 64.0878 52.8867 64.9022 55.4203L66.8062 54.8082C66.0302 52.3939 65.2448 48.8234 64.5366 45.371L62.5774 45.7729ZM62.0102 42.9389C62.1992 43.8948 62.3876 44.8477 62.5774 45.7729L64.5366 45.371C64.3485 44.4541 64.1615 43.5083 63.9722 42.551L62.0102 42.9389ZM62.0073 42.9237L62.0074 42.9238L63.9751 42.566L63.9751 42.5659L62.0073 42.9237ZM60.38 35.3968C60.9668 37.6629 61.4903 40.3091 62.0102 42.9387L63.9722 42.5508C63.4553 39.9363 62.9204 37.229 62.3162 34.8955L60.38 35.3968ZM42.4051 21.9989C44.6178 22.3231 48.5495 23.3493 52.2192 25.4852C55.8857 27.6194 59.1893 30.7981 60.38 35.3968L62.3162 34.8955C60.9447 29.5986 57.1611 26.0476 53.2253 23.7567C49.2924 21.4676 45.1063 20.3733 42.695 20.02L42.4051 21.9989ZM33.2623 16.2004L42.0075 21.8495L43.0927 20.1695L34.3475 14.5204L33.2623 16.2004ZM31.0429 17.835C30.6781 16.5284 32.1228 15.4643 33.2623 16.2004L34.3475 14.5204C31.6618 12.7856 28.2566 15.2935 29.1167 18.3729L31.0429 17.835Z" fill="#3A3A3C"/>
<rect x="56.113" y="37.9736" width="1.76709" height="1.76709" transform="rotate(-180 56.113 37.9736)" fill="#C7C7CC"/>
<rect x="56.113" y="39.7407" width="1.76709" height="1.76709" transform="rotate(-180 56.113 39.7407)" fill="#C7C7CC"/>
<rect x="56.113" y="41.5078" width="1.76709" height="1.76709" transform="rotate(-180 56.113 41.5078)" fill="#C7C7CC"/>
<rect x="54.3459" y="39.7407" width="1.76709" height="1.76709" transform="rotate(-180 54.3459 39.7407)" fill="#C7C7CC"/>
<rect opacity="0.5" x="54.3459" y="37.9736" width="0.883545" height="0.883544" transform="rotate(-180 54.3459 37.9736)" fill="#C7C7CC"/>
<rect opacity="0.5" x="54.3459" y="40.624" width="0.883545" height="0.883544" transform="rotate(-180 54.3459 40.624)" fill="#C7C7CC"/>
<rect opacity="0.5" x="56.9966" y="37.9736" width="0.883545" height="0.883544" transform="rotate(-180 56.9966 37.9736)" fill="#C7C7CC"/>
<rect opacity="0.5" x="56.9966" y="40.624" width="0.883545" height="0.883544" transform="rotate(-180 56.9966 40.624)" fill="#C7C7CC"/>
<rect x="57.8801" y="39.7407" width="1.76709" height="1.76709" transform="rotate(-180 57.8801 39.7407)" fill="#C7C7CC"/>
<rect x="20.5945" y="37.9736" width="1.76709" height="1.76709" transform="rotate(-180 20.5945 37.9736)" fill="#C7C7CC"/>
<rect x="20.5945" y="39.7407" width="1.76709" height="1.76709" transform="rotate(-180 20.5945 39.7407)" fill="#C7C7CC"/>
<rect x="20.5945" y="41.5078" width="1.76709" height="1.76709" transform="rotate(-180 20.5945 41.5078)" fill="#C7C7CC"/>
<rect x="18.8274" y="39.7407" width="1.76709" height="1.76709" transform="rotate(-180 18.8274 39.7407)" fill="#C7C7CC"/>
<rect opacity="0.5" x="18.8274" y="37.9736" width="0.883545" height="0.883544" transform="rotate(-180 18.8274 37.9736)" fill="#C7C7CC"/>
<rect opacity="0.5" x="18.8274" y="40.624" width="0.883545" height="0.883544" transform="rotate(-180 18.8274 40.624)" fill="#C7C7CC"/>
<rect opacity="0.5" x="21.478" y="37.9736" width="0.883545" height="0.883544" transform="rotate(-180 21.478 37.9736)" fill="#C7C7CC"/>
<rect opacity="0.5" x="21.478" y="40.624" width="0.883545" height="0.883544" transform="rotate(-180 21.478 40.624)" fill="#C7C7CC"/>
<rect x="22.3616" y="39.7407" width="1.76709" height="1.76709" transform="rotate(-180 22.3616 39.7407)" fill="#C7C7CC"/>
<rect x="56.113" y="24.5435" width="3.53418" height="1.76709" fill="#3A3A3C"/>
<rect x="59.6472" y="26.3105" width="1.76709" height="1.76709" fill="#3A3A3C"/>
<rect x="57.8801" y="28.0776" width="1.76709" height="1.76709" fill="#3A3A3C"/>
<rect x="59.6472" y="29.8447" width="1.76709" height="1.76709" fill="#3A3A3C"/>
<rect x="59.4482" y="45.73" width="1.76709" height="1.76709" transform="rotate(-13.4541 59.4482 45.73)" fill="#3A3A3C"/>
<rect x="60.7556" y="43.6001" width="7.06836" height="1.76709" transform="rotate(-13.4541 60.7556 43.6001)" fill="#3A3A3C"/>
<rect x="63.2227" y="53.9116" width="7.06836" height="1.76709" transform="rotate(-13.4541 63.2227 53.9116)" fill="#3A3A3C"/>
<rect x="66.3225" y="44.0854" width="1.76709" height="1.76709" transform="rotate(-13.4541 66.3225 44.0854)" fill="#3A3A3C"/>
<rect x="67.9673" y="50.9595" width="1.76709" height="1.76709" transform="rotate(-13.4541 67.9673 50.9595)" fill="#3A3A3C"/>
<rect x="65.0151" y="46.2148" width="1.76709" height="1.76709" transform="rotate(-13.4541 65.0151 46.2148)" fill="#3A3A3C"/>
<rect x="63.7078" y="48.3447" width="1.76709" height="1.76709" transform="rotate(-13.4541 63.7078 48.3447)" fill="#3A3A3C"/>
<rect x="65.8374" y="49.6523" width="1.76709" height="1.76709" transform="rotate(-13.4541 65.8374 49.6523)" fill="#3A3A3C"/>
<rect x="61.0928" y="52.604" width="1.76709" height="1.76709" transform="rotate(-13.4541 61.0928 52.604)" fill="#3A3A3C"/>
<path d="M29.4888 45.7485H27.7217V35.146H29.4888V33.3789H35.4969V35.146H37.264V45.7485H35.4969V47.5156H29.4888V45.7485Z" fill="#BBBBBB"/>
<rect x="25.9546" y="35.146" width="1.76709" height="10.6025" fill="#3A3A3C"/>
<rect x="29.4888" y="31.6118" width="6.00811" height="1.76709" fill="#3A3A3C"/>
<rect x="35.4968" y="33.3789" width="1.76709" height="1.76709" fill="#3A3A3C"/>
<rect x="27.7217" y="45.7485" width="1.76709" height="1.76709" fill="#3A3A3C"/>
<rect x="35.4968" y="45.7485" width="1.76709" height="1.76709" fill="#3A3A3C"/>
<rect x="27.7217" y="33.3789" width="1.76709" height="1.76709" fill="#3A3A3C"/>
<rect x="29.4888" y="47.5156" width="6.00811" height="1.76709" fill="#3A3A3C"/>
<rect x="37.2639" y="35.146" width="1.76709" height="10.6025" fill="#3A3A3C"/>
<path d="M40.7981 45.7485H39.031V35.146H40.7981V33.3789H46.8062V35.146H48.5733V45.7485H46.8062V47.5156H40.7981V45.7485Z" fill="#BBBBBB"/>
<rect x="37.2639" y="35.146" width="1.76709" height="10.6025" fill="#3A3A3C"/>
<rect x="40.7981" y="31.6118" width="6.00811" height="1.76709" fill="#3A3A3C"/>
<rect x="46.8062" y="33.3789" width="1.76709" height="1.76709" fill="#3A3A3C"/>
<rect x="39.031" y="45.7485" width="1.76709" height="1.76709" fill="#3A3A3C"/>
<rect x="46.8062" y="45.7485" width="1.76709" height="1.76709" fill="#3A3A3C"/>
<rect x="39.031" y="33.3789" width="1.76709" height="1.76709" fill="#3A3A3C"/>
<rect x="40.7981" y="47.5156" width="6.00811" height="1.76709" fill="#3A3A3C"/>
<rect x="48.5732" y="35.146" width="1.76709" height="10.6025" fill="#3A3A3C"/>
<rect x="36.2639" y="51.9556" width="1.8849" height="1.8849" fill="#3A3A3C"/>
<rect x="35.0371" y="51.9556" width="1.8849" height="1.8849" fill="#3A3A3C"/>
<rect x="40.0337" y="51.9556" width="1.8849" height="1.8849" fill="#3A3A3C"/>
<rect x="41.0371" y="51.9556" width="1.8849" height="1.8849" fill="#3A3A3C"/>
<rect x="38.1489" y="51.9556" width="1.8849" height="1.8849" fill="#3A3A3C"/>
<rect x="32.0371" y="53.4502" width="3" height="2" fill="#3A3A3C"/>
<rect x="42.7371" y="53.4502" width="3" height="2" fill="#3A3A3C"/>
<rect x="31.4749" y="30.0864" width="1.8849" height="1.8849" transform="rotate(165 31.4749 30.0864)" fill="#3A3A3C"/>
<rect x="27.8335" y="31.062" width="1.8849" height="1.8849" transform="rotate(165 27.8335 31.062)" fill="#3A3A3C"/>
<rect x="29.6541" y="30.5742" width="1.8849" height="1.8849" transform="rotate(165 29.6541 30.5742)" fill="#3A3A3C"/>
<rect x="32.8076" y="27.7778" width="1.8849" height="1.8849" transform="rotate(165 32.8076 27.7778)" fill="#3A3A3C"/>
<rect width="1.8849" height="1.8849" transform="matrix(0.965926 0.258819 0.258819 -0.965926 44.8577 30.0864)" fill="#3A3A3C"/>
<rect width="1.8849" height="1.8849" transform="matrix(0.965926 0.258819 0.258819 -0.965926 48.4993 31.062)" fill="#3A3A3C"/>
<rect width="1.8849" height="1.8849" transform="matrix(0.965926 0.258819 0.258819 -0.965926 46.6785 30.5742)" fill="#3A3A3C"/>
<rect width="1.8849" height="1.8849" transform="matrix(0.965926 0.258819 0.258819 -0.965926 43.5249 27.7778)" fill="#3A3A3C"/>
<path d="M62.5105 64.0967C62.8097 66.191 64.9339 70.559 71.0372 71.277" stroke="#3A3A3C" stroke-width="1.79509"/>
<path d="M22 4.76855C22.1414 8.07904 27.4969 11.1668 30.1453 11.0537C33.4557 10.9122 33.4853 8.41229 33.3143 7.60174C32.7944 5.13656 28.6563 5.31333 27.521 7.84923C26.3856 10.3851 27.624 14.8291 31.124 16.8291C34.624 18.8291 38.624 18.8291 40.624 18.8291" stroke="#3A3A3C" stroke-width="2"/>
<path d="M8.0839 9.29157C8.29851 12.919 10.0166 21.6126 18.5045 21.8007" stroke="#3A3A3C" stroke-width="2"/>
<rect x="30.0371" y="35.4556" width="4" height="10" fill="#3A3A3C"/>
<rect x="41.0371" y="35.4556" width="4" height="10" fill="#3A3A3C"/>
<mask id="path-72-outside-1_47_19523" maskUnits="userSpaceOnUse" x="25.783" y="67.9556" width="15" height="11" fill="black">
<rect fill="white" x="25.783" y="67.9556" width="15" height="11"/>
<path fill-rule="evenodd" clip-rule="evenodd" d="M34.4846 69.9556L34.4846 71.4093L28.0372 71.4093L28.0372 76.7888L34.4846 76.7888L34.4846 76.7886L37.3501 76.7886L37.3501 72.8631L34.4846 72.8631L34.4846 71.4095L35.9173 71.4095L35.9173 69.9556L34.4846 69.9556ZM38.783 76.7891L37.3502 76.7891L37.3502 74.3174L38.783 74.3174L38.783 76.7891Z"/>
</mask>
<path fill-rule="evenodd" clip-rule="evenodd" d="M34.4846 69.9556L34.4846 71.4093L28.0372 71.4093L28.0372 76.7888L34.4846 76.7888L34.4846 76.7886L37.3501 76.7886L37.3501 72.8631L34.4846 72.8631L34.4846 71.4095L35.9173 71.4095L35.9173 69.9556L34.4846 69.9556ZM38.783 76.7891L37.3502 76.7891L37.3502 74.3174L38.783 74.3174L38.783 76.7891Z" fill="#1C1C1E"/>
<path d="M34.4846 71.4093L35.9846 71.4093L35.9846 72.9093L34.4846 72.9093L34.4846 71.4093ZM34.4846 69.9556L32.9846 69.9556L32.9846 68.4556L34.4846 68.4556L34.4846 69.9556ZM28.0372 71.4093L26.5372 71.4093L26.5372 69.9093L28.0372 69.9093L28.0372 71.4093ZM28.0372 76.7888L28.0372 78.2888L26.5372 78.2888L26.5372 76.7888L28.0372 76.7888ZM34.4846 76.7888L35.9846 76.7942L35.9791 78.2888L34.4846 78.2888L34.4846 76.7888ZM34.4846 76.7886L32.9846 76.7832L32.99 75.2886L34.4846 75.2886L34.4846 76.7886ZM37.3501 76.7886L38.8501 76.7886L38.8501 78.2886L37.3501 78.2886L37.3501 76.7886ZM37.3501 72.8631L37.3501 71.3631L38.8501 71.3631L38.8501 72.8631L37.3501 72.8631ZM34.4846 72.8631L34.4846 74.3631L32.9846 74.3631L32.9846 72.8631L34.4846 72.8631ZM34.4846 71.4095L32.9846 71.4095L32.9846 69.9095L34.4846 69.9095L34.4846 71.4095ZM35.9173 71.4095L37.4173 71.4095L37.4173 72.9095L35.9173 72.9095L35.9173 71.4095ZM35.9173 69.9556L35.9173 68.4556L37.4173 68.4556L37.4173 69.9556L35.9173 69.9556ZM37.3502 76.7891L37.3502 78.2891L35.8502 78.2891L35.8502 76.7891L37.3502 76.7891ZM38.783 76.7891L40.283 76.7891L40.283 78.2891L38.783 78.2891L38.783 76.7891ZM37.3502 74.3174L35.8502 74.3174L35.8502 72.8174L37.3502 72.8174L37.3502 74.3174ZM38.783 74.3174L38.783 72.8174L40.283 72.8174L40.283 74.3174L38.783 74.3174ZM32.9846 71.4093L32.9846 69.9556L35.9846 69.9556L35.9846 71.4093L32.9846 71.4093ZM34.4846 72.9093L28.0372 72.9093L28.0372 69.9093L34.4846 69.9093L34.4846 72.9093ZM29.5372 71.4093L29.5372 76.7888L26.5372 76.7888L26.5372 71.4093L29.5372 71.4093ZM28.0372 75.2888L34.4846 75.2888L34.4846 78.2888L28.0372 78.2888L28.0372 75.2888ZM32.9846 76.7833L32.9846 76.7832L35.9846 76.7941L35.9846 76.7942L32.9846 76.7833ZM34.4846 75.2886L37.3501 75.2886L37.3501 78.2886L34.4846 78.2886L34.4846 75.2886ZM35.8501 76.7886L35.8501 72.8631L38.8501 72.8631L38.8501 76.7886L35.8501 76.7886ZM37.3501 74.3631L34.4846 74.3631L34.4846 71.3631L37.3501 71.3631L37.3501 74.3631ZM32.9846 72.8631L32.9846 71.4095L35.9846 71.4095L35.9846 72.8631L32.9846 72.8631ZM35.9173 72.9095L34.4846 72.9095L34.4846 69.9095L35.9173 69.9095L35.9173 72.9095ZM37.4173 69.9556L37.4173 71.4095L34.4173 71.4095L34.4173 69.9556L37.4173 69.9556ZM34.4846 68.4556L35.9173 68.4556L35.9173 71.4556L34.4846 71.4556L34.4846 68.4556ZM37.3502 75.2891L38.783 75.2891L38.783 78.2891L37.3502 78.2891L37.3502 75.2891ZM38.8502 74.3174L38.8502 76.7891L35.8502 76.7891L35.8502 74.3174L38.8502 74.3174ZM38.783 75.8174L37.3502 75.8174L37.3502 72.8174L38.783 72.8174L38.783 75.8174ZM37.283 76.7891L37.283 74.3174L40.283 74.3174L40.283 76.7891L37.283 76.7891Z" fill="#3A3A3C" mask="url(#path-72-outside-1_47_19523)"/>
<mask id="path-74-outside-2_47_19523" maskUnits="userSpaceOnUse" x="40.7371" y="67.9556" width="15" height="11" fill="black">
<rect fill="white" x="40.7371" y="67.9556" width="15" height="11"/>
<path fill-rule="evenodd" clip-rule="evenodd" d="M47.0355 69.9556L47.0355 71.4093L53.4828 71.4093L53.4828 76.7888L47.0355 76.7888L47.0355 76.7886L44.1699 76.7886L44.1699 72.8631L47.0355 72.8631L47.0355 71.4095L45.6027 71.4095L45.6027 69.9556L47.0355 69.9556ZM42.7371 76.7891L44.1698 76.7891L44.1698 74.3174L42.7371 74.3174L42.7371 76.7891Z"/>
</mask>
<path fill-rule="evenodd" clip-rule="evenodd" d="M47.0355 69.9556L47.0355 71.4093L53.4828 71.4093L53.4828 76.7888L47.0355 76.7888L47.0355 76.7886L44.1699 76.7886L44.1699 72.8631L47.0355 72.8631L47.0355 71.4095L45.6027 71.4095L45.6027 69.9556L47.0355 69.9556ZM42.7371 76.7891L44.1698 76.7891L44.1698 74.3174L42.7371 74.3174L42.7371 76.7891Z" fill="#1C1C1E"/>
<path d="M47.0355 71.4093L45.5355 71.4093L45.5355 72.9093L47.0355 72.9093L47.0355 71.4093ZM47.0355 69.9556L48.5355 69.9556L48.5355 68.4556L47.0355 68.4556L47.0355 69.9556ZM53.4828 71.4093L54.9828 71.4093L54.9828 69.9093L53.4828 69.9093L53.4828 71.4093ZM53.4828 76.7888L53.4828 78.2888L54.9828 78.2888L54.9828 76.7888L53.4828 76.7888ZM47.0355 76.7888L45.5355 76.7942L45.5409 78.2888L47.0355 78.2888L47.0355 76.7888ZM47.0355 76.7886L48.5354 76.7832L48.53 75.2886L47.0355 75.2886L47.0355 76.7886ZM44.1699 76.7886L42.6699 76.7886L42.6699 78.2886L44.1699 78.2886L44.1699 76.7886ZM44.1699 72.8631L44.1699 71.3631L42.6699 71.3631L42.6699 72.8631L44.1699 72.8631ZM47.0355 72.8631L47.0355 74.3631L48.5355 74.3631L48.5355 72.8631L47.0355 72.8631ZM47.0355 71.4095L48.5355 71.4095L48.5355 69.9095L47.0355 69.9095L47.0355 71.4095ZM45.6027 71.4095L44.1027 71.4095L44.1027 72.9095L45.6027 72.9095L45.6027 71.4095ZM45.6027 69.9556L45.6027 68.4556L44.1027 68.4556L44.1027 69.9556L45.6027 69.9556ZM44.1698 76.7891L44.1698 78.2891L45.6698 78.2891L45.6698 76.7891L44.1698 76.7891ZM42.7371 76.7891L41.2371 76.7891L41.2371 78.2891L42.7371 78.2891L42.7371 76.7891ZM44.1698 74.3174L45.6698 74.3174L45.6698 72.8174L44.1698 72.8174L44.1698 74.3174ZM42.7371 74.3174L42.7371 72.8174L41.2371 72.8174L41.2371 74.3174L42.7371 74.3174ZM48.5355 71.4093L48.5355 69.9556L45.5355 69.9556L45.5355 71.4093L48.5355 71.4093ZM47.0355 72.9093L53.4828 72.9093L53.4828 69.9093L47.0355 69.9093L47.0355 72.9093ZM51.9828 71.4093L51.9828 76.7888L54.9828 76.7888L54.9828 71.4093L51.9828 71.4093ZM53.4828 75.2888L47.0355 75.2888L47.0355 78.2888L53.4828 78.2888L53.4828 75.2888ZM48.5354 76.7833L48.5354 76.7832L45.5355 76.7941L45.5355 76.7942L48.5354 76.7833ZM47.0355 75.2886L44.1699 75.2886L44.1699 78.2886L47.0355 78.2886L47.0355 75.2886ZM45.6699 76.7886L45.6699 72.8631L42.6699 72.8631L42.6699 76.7886L45.6699 76.7886ZM44.1699 74.3631L47.0355 74.3631L47.0355 71.3631L44.1699 71.3631L44.1699 74.3631ZM48.5355 72.8631L48.5355 71.4095L45.5355 71.4095L45.5355 72.8631L48.5355 72.8631ZM45.6027 72.9095L47.0355 72.9095L47.0355 69.9095L45.6027 69.9095L45.6027 72.9095ZM44.1027 69.9556L44.1027 71.4095L47.1027 71.4095L47.1027 69.9556L44.1027 69.9556ZM47.0355 68.4556L45.6027 68.4556L45.6027 71.4556L47.0355 71.4556L47.0355 68.4556ZM44.1698 75.2891L42.7371 75.2891L42.7371 78.2891L44.1698 78.2891L44.1698 75.2891ZM42.6698 74.3174L42.6698 76.7891L45.6698 76.7891L45.6698 74.3174L42.6698 74.3174ZM42.7371 75.8174L44.1698 75.8174L44.1698 72.8174L42.7371 72.8174L42.7371 75.8174ZM44.2371 76.7891L44.2371 74.3174L41.2371 74.3174L41.2371 76.7891L44.2371 76.7891Z" fill="#3A3A3C" mask="url(#path-74-outside-2_47_19523)"/>
</svg>
