<svg width="80" height="80" viewBox="0 0 80 80" fill="none" xmlns="http://www.w3.org/2000/svg">
<g clip-path="url(#clip0_526_32808)">
<mask id="path-1-outside-1_526_32808" maskUnits="userSpaceOnUse" x="14.0718" y="17.6733" width="57" height="68" fill="black">
<rect fill="white" x="14.0718" y="17.6733" width="57" height="68"/>
<path fill-rule="evenodd" clip-rule="evenodd" d="M28.2775 23.3107C27.7173 21.6267 29.4647 20.1017 31.0574 20.8844L41.5811 26.0567C45.257 26.0802 49.0329 26.8519 52.669 28.4537C64.4058 33.6243 70.7433 45.7079 68.2744 56.8868L64.9528 74.9475H51.8395V82.3718H45.0015V75.0258C43.004 75.0652 40.9722 74.8836 38.945 74.4677V82.9579H32.107V72.1214C31.0869 71.6199 30.1109 71.0649 29.1816 70.462C24.0717 70.2943 20.4135 67.9734 17.894 65.3535C17.4561 64.8982 17.2968 64.2493 17.4318 63.6321L17.6522 62.6249C17.9043 61.4721 18.6526 60.4899 19.696 59.9404C16.5909 53.7435 16.1024 46.5202 18.9796 39.9891C21.239 34.8605 25.2141 30.9752 30.0461 28.6272L29.5925 27.2637L28.2775 23.3107Z"/>
</mask>
<path fill-rule="evenodd" clip-rule="evenodd" d="M28.2775 23.3107C27.7173 21.6267 29.4647 20.1017 31.0574 20.8844L41.5811 26.0567C45.257 26.0802 49.0329 26.8519 52.669 28.4537C64.4058 33.6243 70.7433 45.7079 68.2744 56.8868L64.9528 74.9475H51.8395V82.3718H45.0015V75.0258C43.004 75.0652 40.9722 74.8836 38.945 74.4677V82.9579H32.107V72.1214C31.0869 71.6199 30.1109 71.0649 29.1816 70.462C24.0717 70.2943 20.4135 67.9734 17.894 65.3535C17.4561 64.8982 17.2968 64.2493 17.4318 63.6321L17.6522 62.6249C17.9043 61.4721 18.6526 60.4899 19.696 59.9404C16.5909 53.7435 16.1024 46.5202 18.9796 39.9891C21.239 34.8605 25.2141 30.9752 30.0461 28.6272L29.5925 27.2637L28.2775 23.3107Z" fill="#6F6F73"/>
<path d="M31.0574 20.8844L31.9396 19.0895V19.0895L31.0574 20.8844ZM28.2775 23.3107L26.3797 23.942L26.3797 23.942L28.2775 23.3107ZM41.5811 26.0567L40.699 27.8516L41.1101 28.0537L41.5683 28.0566L41.5811 26.0567ZM52.669 28.4537L53.4753 26.6235L52.669 28.4537ZM68.2744 56.8868L66.3215 56.4555L66.3138 56.4902L66.3074 56.5251L68.2744 56.8868ZM64.9528 74.9475V76.9475H66.6186L66.9199 75.3093L64.9528 74.9475ZM51.8395 74.9475V72.9475H49.8395V74.9475H51.8395ZM51.8395 82.3718V84.3718H53.8395V82.3718H51.8395ZM45.0015 82.3718H43.0015V84.3718H45.0015V82.3718ZM45.0015 75.0258H47.0015V72.9859L44.962 73.0262L45.0015 75.0258ZM38.945 74.4677L39.3469 72.5085L36.945 72.0157V74.4677H38.945ZM38.945 82.9579V84.9579H40.945V82.9579H38.945ZM32.107 82.9579H30.107V84.9579H32.107V82.9579ZM32.107 72.1214H34.107V70.8761L32.9894 70.3266L32.107 72.1214ZM29.1816 70.462L30.27 68.7841L29.8032 68.4813L29.2472 68.4631L29.1816 70.462ZM17.894 65.3535L16.4524 66.7399L16.4524 66.7399L17.894 65.3535ZM17.4318 63.6321L19.3856 64.0595H19.3856L17.4318 63.6321ZM17.6522 62.6249L15.6984 62.1975H15.6984L17.6522 62.6249ZM19.696 59.9404L20.6279 61.7101L22.3622 60.7968L21.4841 59.0445L19.696 59.9404ZM18.9796 39.9891L17.1493 39.1828H17.1493L18.9796 39.9891ZM30.0461 28.6272L30.9202 30.4261L32.4973 29.6597L31.9438 27.9959L30.0461 28.6272ZM29.5925 27.2637L31.4902 26.6324V26.6324L29.5925 27.2637ZM31.9396 19.0895C28.7542 17.524 25.2594 20.5741 26.3797 23.942L30.1752 22.6794V22.6794L31.9396 19.0895ZM42.4633 24.2617L31.9396 19.0895L30.1752 22.6794L40.699 27.8516L42.4633 24.2617ZM53.4753 26.6235C49.5875 24.9107 45.5414 24.082 41.594 24.0567L41.5683 28.0566C44.9726 28.0785 48.4784 28.793 51.8627 30.284L53.4753 26.6235ZM70.2274 57.3181C72.9216 45.1187 65.9975 32.14 53.4753 26.6235L51.8627 30.284C62.8141 35.1085 68.565 46.2972 66.3215 56.4555L70.2274 57.3181ZM66.9199 75.3093L70.2415 57.2486L66.3074 56.5251L62.9858 74.5858L66.9199 75.3093ZM51.8395 76.9475H64.9528V72.9475H51.8395V76.9475ZM53.8395 82.3718V74.9475H49.8395V82.3718H53.8395ZM45.0015 84.3718H51.8395V80.3718H45.0015V84.3718ZM43.0015 75.0258V82.3718H47.0015V75.0258H43.0015ZM38.543 76.4269C40.7158 76.8726 42.8956 77.0677 45.041 77.0254L44.962 73.0262C43.1125 73.0627 41.2287 72.8946 39.3469 72.5085L38.543 76.4269ZM40.945 82.9579V74.4677H36.945V82.9579H40.945ZM32.107 84.9579H38.945V80.9579H32.107V84.9579ZM30.107 72.1214V82.9579H34.107V72.1214H30.107ZM28.0931 72.1399C29.0887 72.7857 30.1334 73.3797 31.2245 73.9162L32.9894 70.3266C32.0403 69.86 31.1332 69.344 30.27 68.7841L28.0931 72.1399ZM29.2472 68.4631C24.774 68.3163 21.5828 66.304 19.3355 63.9672L16.4524 66.7399C19.2441 69.6427 23.3694 72.2724 29.116 72.4609L29.2472 68.4631ZM19.3355 63.9672C19.3645 63.9973 19.3779 64.0282 19.3827 64.0464C19.3869 64.0623 19.3842 64.0662 19.3856 64.0595L15.478 63.2047C15.2128 64.4173 15.5129 65.7629 16.4524 66.7399L19.3355 63.9672ZM19.3856 64.0595L19.606 63.0523L15.6984 62.1975L15.478 63.2047L19.3856 64.0595ZM19.606 63.0523C19.7321 62.4759 20.1062 61.9848 20.6279 61.7101L18.7642 58.1708C17.199 58.995 16.0766 60.4683 15.6984 62.1975L19.606 63.0523ZM17.1493 39.1828C14.0092 46.3108 14.5621 54.1592 17.9079 60.8364L21.4841 59.0445C18.6196 53.3278 18.1957 46.7295 20.8099 40.7954L17.1493 39.1828ZM29.172 26.8283C23.9446 29.3684 19.6132 33.5901 17.1493 39.1828L20.8099 40.7954C22.8648 36.1309 26.4836 32.5819 30.9202 30.4261L29.172 26.8283ZM27.6947 27.895L28.1483 29.2585L31.9438 27.9959L31.4902 26.6324L27.6947 27.895ZM26.3797 23.942L27.6947 27.895L31.4902 26.6324L30.1752 22.6794L26.3797 23.942Z" fill="#3A3A3C" mask="url(#path-1-outside-1_526_32808)"/>
<rect x="35.8276" y="41.197" width="1.95371" height="11.7223" fill="#3A3A3C"/>
<path fill-rule="evenodd" clip-rule="evenodd" d="M40.7121 38.2664H39.7353V54.873H40.7121V38.2664ZM38.7582 39.2429H39.7351V53.8957H38.7582V52.9191H37.7817V40.2199H38.7582V39.2429ZM40.7123 38.2664H41.6888H41.6892H42.6656V54.873H41.6892H41.6888H40.7123V38.2664ZM42.6658 38.2664H43.4471H43.6427H44.424V54.873H43.6427H43.4471H42.6658V38.2664ZM44.4242 38.2664H46.3779V41.197H48.3314V53.8961H46.3779V54.873H44.4242V38.2664Z" fill="#3A3A3C"/>
<rect x="48.3315" y="41.197" width="1.95371" height="11.7223" fill="#3A3A3C"/>
<rect x="37.7817" y="52.9193" width="1.95371" height="1.95371" fill="#3A3A3C"/>
<rect x="46.3774" y="52.9193" width="1.95371" height="1.95371" fill="#3A3A3C"/>
<rect x="46.3774" y="39.2429" width="1.95371" height="1.95371" fill="#3A3A3C"/>
<rect x="37.7817" y="39.2429" width="1.95371" height="1.95371" fill="#3A3A3C"/>
<rect x="44.4238" y="37.2893" width="1.95371" height="4.68891" transform="rotate(90 44.4238 37.2893)" fill="#3A3A3C"/>
<rect x="44.4238" y="54.8728" width="1.95371" height="4.68891" transform="rotate(90 44.4238 54.8728)" fill="#3A3A3C"/>
<rect x="44.4238" y="54.8728" width="1.95371" height="1.95371" fill="#3A3A3C"/>
<rect x="44.4238" y="37.2893" width="1.95371" height="1.95371" fill="#3A3A3C"/>
<rect x="23.3242" y="41.197" width="1.95371" height="11.7223" fill="#3A3A3C"/>
<path fill-rule="evenodd" clip-rule="evenodd" d="M28.2084 38.2664H27.2319V54.873H28.2084H28.2088H29.1853V38.2664H28.2088H28.2084ZM26.2549 39.2429H27.2317V53.8957H26.2549V39.2429ZM25.2778 40.2199H26.2547V52.9191H25.2778V40.2199ZM30.1623 38.2664H29.1855V54.873H30.1623V38.2664ZM30.1625 38.2664H30.9438H31.1394H31.9206V54.873H31.1394H30.9438H30.1625V38.2664ZM31.9208 38.2664H33.8746V41.197H35.8281V53.8961H33.8746V54.873H31.9208V38.2664Z" fill="#3A3A3C"/>
<rect x="27.4272" y="39.0477" width="2.34446" height="11.7223" fill="#3A3A3C"/>
<rect x="29.7715" y="39.0477" width="2.34446" height="11.7223" fill="#3A3A3C"/>
<rect x="35.8281" y="41.197" width="1.95371" height="11.7223" fill="#3A3A3C"/>
<rect x="33.8745" y="52.9193" width="1.95371" height="1.95371" fill="#3A3A3C"/>
<rect x="33.8745" y="39.2429" width="1.95371" height="1.95371" fill="#3A3A3C"/>
<rect x="25.0825" y="39.0477" width="2.34446" height="16.4112" fill="#3A3A3C"/>
<rect x="31.9209" y="37.2893" width="1.95371" height="4.68891" transform="rotate(90 31.9209 37.2893)" fill="#3A3A3C"/>
<rect x="31.9209" y="54.8728" width="1.95371" height="4.68891" transform="rotate(90 31.9209 54.8728)" fill="#3A3A3C"/>
<rect x="31.9209" y="54.8728" width="1.95371" height="1.95371" fill="#3A3A3C"/>
<rect x="31.9209" y="37.2893" width="1.95371" height="1.95371" fill="#3A3A3C"/>
<rect x="66.3052" y="35.7261" width="1.95371" height="1.95371" transform="rotate(-180 66.3052 35.7261)" fill="#3A3A3C"/>
<rect x="65.4526" y="16.997" width="2" height="4" transform="rotate(-150 65.4526 16.997)" fill="#3A3A3C"/>
<rect x="61.6924" y="11.6688" width="1.95371" height="1.95371" transform="rotate(-150 61.6924 11.6688)" fill="#3A3A3C"/>
<rect x="59.8374" y="20.6298" width="1.95371" height="1.95371" transform="rotate(-150 59.8374 20.6298)" fill="#3A3A3C"/>
<rect x="64.3521" y="37.6795" width="1.95371" height="1.95371" transform="rotate(-180 64.3521 37.6795)" fill="#3A3A3C"/>
<rect x="66.3057" y="39.6336" width="1.95371" height="1.95371" transform="rotate(-180 66.3057 39.6336)" fill="#3A3A3C"/>
<rect x="64.3521" y="63.2733" width="1.95371" height="1.95371" transform="rotate(-180 64.3521 63.2733)" fill="#3A3A3C"/>
<rect x="64.3521" y="71.088" width="1.95371" height="1.95371" transform="rotate(-180 64.3521 71.088)" fill="#3A3A3C"/>
<rect x="72.1665" y="61.3198" width="1.95371" height="1.95371" transform="rotate(-180 72.1665 61.3198)" fill="#3A3A3C"/>
<rect x="72.1665" y="63.2733" width="1.95371" height="1.95371" transform="rotate(-180 72.1665 63.2733)" fill="#3A3A3C"/>
<rect x="70.2134" y="65.2268" width="1.95371" height="1.95371" transform="rotate(-180 70.2134 65.2268)" fill="#3A3A3C"/>
<rect x="68.2598" y="67.1809" width="1.95371" height="1.95371" transform="rotate(-180 68.2598 67.1809)" fill="#3A3A3C"/>
<rect x="70.2134" y="69.1344" width="1.95371" height="1.95371" transform="rotate(-180 70.2134 69.1344)" fill="#3A3A3C"/>
<rect x="72.1665" y="71.088" width="1.95371" height="1.95371" transform="rotate(-180 72.1665 71.088)" fill="#3A3A3C"/>
<rect x="70.2134" y="61.3198" width="5.86114" height="1.95371" transform="rotate(-180 70.2134 61.3198)" fill="#3A3A3C"/>
<rect x="64.3521" y="33.7725" width="3.90743" height="1.95371" transform="rotate(-180 64.3521 33.7725)" fill="#3A3A3C"/>
<rect x="65.6636" y="12.4464" width="3.90743" height="1.95371" transform="rotate(-150 65.6636 12.4464)" fill="#3A3A3C"/>
<rect x="62.7207" y="17.7291" width="3" height="2" transform="rotate(-150 62.7207 17.7291)" fill="#3A3A3C"/>
<rect x="72.1665" y="73.0421" width="7.81486" height="1.95371" transform="rotate(-180 72.1665 73.0421)" fill="#3A3A3C"/>
<rect x="35.8271" y="59.7567" width="1.95371" height="1.95371" transform="rotate(90 35.8271 59.7567)" fill="#3A3A3C"/>
<rect x="37.7812" y="57.8031" width="1.95371" height="1.95371" transform="rotate(90 37.7812 57.8031)" fill="#3A3A3C"/>
<rect x="39.7349" y="57.8031" width="1.95371" height="1.95371" transform="rotate(90 39.7349 57.8031)" fill="#3A3A3C"/>
<g clip-path="url(#clip1_526_32808)">
<rect x="56.9404" y="48.1378" width="1.66667" height="1.66667" transform="rotate(-180 56.9404 48.1378)" fill="#3A3A3C"/>
<rect x="56.9404" y="49.8045" width="1.66667" height="1.66667" transform="rotate(-180 56.9404 49.8045)" fill="#3A3A3C"/>
<rect x="56.9404" y="51.4712" width="1.66667" height="1.66667" transform="rotate(-180 56.9404 51.4712)" fill="#3A3A3C"/>
<rect x="55.2734" y="49.8045" width="1.66667" height="1.66667" transform="rotate(-180 55.2734 49.8045)" fill="#3A3A3C"/>
<rect opacity="0.5" x="55.2734" y="48.1378" width="0.833333" height="0.833333" transform="rotate(-180 55.2734 48.1378)" fill="#3A3A3C"/>
<rect opacity="0.5" x="55.2734" y="50.6378" width="0.833333" height="0.833333" transform="rotate(-180 55.2734 50.6378)" fill="#3A3A3C"/>
<rect opacity="0.5" x="57.7734" y="48.1378" width="0.833333" height="0.833333" transform="rotate(-180 57.7734 48.1378)" fill="#3A3A3C"/>
<rect opacity="0.5" x="57.7734" y="50.6378" width="0.833333" height="0.833333" transform="rotate(-180 57.7734 50.6378)" fill="#3A3A3C"/>
<rect x="58.6069" y="49.8045" width="1.66667" height="1.66667" transform="rotate(-180 58.6069 49.8045)" fill="#3A3A3C"/>
</g>
<g clip-path="url(#clip2_526_32808)">
<rect x="19.8193" y="48.1378" width="1.66667" height="1.66667" transform="rotate(-180 19.8193 48.1378)" fill="#3A3A3C"/>
<rect x="19.8193" y="49.8045" width="1.66667" height="1.66667" transform="rotate(-180 19.8193 49.8045)" fill="#3A3A3C"/>
<rect x="19.8193" y="51.4712" width="1.66667" height="1.66667" transform="rotate(-180 19.8193 51.4712)" fill="#3A3A3C"/>
<rect x="18.1523" y="49.8045" width="1.66667" height="1.66667" transform="rotate(-180 18.1523 49.8045)" fill="#3A3A3C"/>
<rect opacity="0.5" x="18.1523" y="48.1378" width="0.833333" height="0.833333" transform="rotate(-180 18.1523 48.1378)" fill="#3A3A3C"/>
<rect opacity="0.5" x="18.1523" y="50.6378" width="0.833333" height="0.833333" transform="rotate(-180 18.1523 50.6378)" fill="#3A3A3C"/>
<rect opacity="0.5" x="20.6523" y="48.1378" width="0.833333" height="0.833333" transform="rotate(-180 20.6523 48.1378)" fill="#3A3A3C"/>
<rect opacity="0.5" x="20.6523" y="50.6378" width="0.833333" height="0.833333" transform="rotate(-180 20.6523 50.6378)" fill="#3A3A3C"/>
<rect x="21.4858" y="49.8045" width="1.66667" height="1.66667" transform="rotate(-180 21.4858 49.8045)" fill="#3A3A3C"/>
</g>
<rect x="39.7354" y="32.2093" width="1.95371" height="1.95371" transform="rotate(90 39.7354 32.2093)" fill="#3A3A3C"/>
<rect x="41.689" y="30.2557" width="1.95371" height="1.95371" transform="rotate(90 41.689 30.2557)" fill="#3A3A3C"/>
<rect x="35.8276" y="32.2093" width="1.95371" height="1.95371" transform="rotate(90 35.8276 32.2093)" fill="#3A3A3C"/>
<rect x="33.874" y="30.2557" width="1.95371" height="1.95371" transform="rotate(90 33.874 30.2557)" fill="#3A3A3C"/>
<rect x="37.7812" y="34.1628" width="1.95371" height="1.95371" transform="rotate(90 37.7812 34.1628)" fill="#3A3A3C"/>
<rect width="1.95371" height="6.64265" transform="matrix(4.37112e-08 1 1 -4.37112e-08 37.9766 46.4716)" fill="#3A3A3C"/>
<rect width="1.95371" height="1.95372" transform="matrix(4.37112e-08 1 1 -4.37112e-08 39.9302 44.518)" fill="#3A3A3C"/>
<rect width="1.95371" height="1.95372" transform="matrix(4.37112e-08 1 1 -4.37112e-08 41.8833 42.5639)" fill="#3A3A3C"/>
<rect width="1.95371" height="1.95372" transform="matrix(4.37112e-08 1 1 -4.37112e-08 39.5586 48.4056)" fill="#3A3A3C"/>
<rect width="1.95371" height="1.95372" transform="matrix(4.37112e-08 1 1 -4.37112e-08 41.8833 50.3792)" fill="#3A3A3C"/>
<mask id="mask0_526_32808" style="mask-type:alpha" maskUnits="userSpaceOnUse" x="3" y="11" width="50" height="50">
<circle cx="28.4238" cy="35.7656" r="24.5" fill="#3A3A3C"/>
</mask>
<g mask="url(#mask0_526_32808)">
<mask id="path-77-outside-2_526_32808" maskUnits="userSpaceOnUse" x="9.21338" y="8.40875" width="64" height="76" fill="black">
<rect fill="white" x="9.21338" y="8.40875" width="64" height="76"/>
<path fill-rule="evenodd" clip-rule="evenodd" d="M27.4368 11.6198C25.8441 10.8371 24.0967 12.3622 24.6569 14.0461L26.3323 19.0826L26.844 20.6207C21.3951 23.2685 16.9126 27.6498 14.3648 33.4331C8.47439 46.8039 15.0934 62.7476 29.1681 69.6676V81.8875H36.8791V72.3134C39.1651 72.7824 41.4562 72.9872 43.7086 72.9427V81.2265H51.4196V72.8539H66.2074L69.9537 52.4842C72.7354 39.8793 65.5889 26.2551 52.3551 20.4251C48.2551 18.6189 43.9975 17.7487 39.8526 17.722L27.4368 11.6198Z"/>
</mask>
<path fill-rule="evenodd" clip-rule="evenodd" d="M27.4368 11.6198C25.8441 10.8371 24.0967 12.3622 24.6569 14.0461L26.3323 19.0826L26.844 20.6207C21.3951 23.2685 16.9126 27.6498 14.3648 33.4331C8.47439 46.8039 15.0934 62.7476 29.1681 69.6676V81.8875H36.8791V72.3134C39.1651 72.7824 41.4562 72.9872 43.7086 72.9427V81.2265H51.4196V72.8539H66.2074L69.9537 52.4842C72.7354 39.8793 65.5889 26.2551 52.3551 20.4251C48.2551 18.6189 43.9975 17.7487 39.8526 17.722L27.4368 11.6198Z" fill="#6F6F73"/>
<path d="M24.6569 14.0461L22.7591 14.6774V14.6774L24.6569 14.0461ZM27.4368 11.6198L28.319 9.82491V9.82491L27.4368 11.6198ZM26.3323 19.0826L28.2301 18.4512V18.4512L26.3323 19.0826ZM26.844 20.6207L27.7181 22.4196L29.2953 21.6532L28.7418 19.9894L26.844 20.6207ZM14.3648 33.4331L16.195 34.2395L14.3648 33.4331ZM29.1681 69.6676H31.1681V68.4223L30.0505 67.8728L29.1681 69.6676ZM29.1681 81.8875H27.1681V83.8875H29.1681V81.8875ZM36.8791 81.8875V83.8875H38.8791V81.8875H36.8791ZM36.8791 72.3134L37.281 70.3542L34.8791 69.8615V72.3134H36.8791ZM43.7086 72.9427H45.7086V70.9029L43.6692 70.9431L43.7086 72.9427ZM43.7086 81.2265H41.7086V83.2265H43.7086V81.2265ZM51.4196 81.2265V83.2265H53.4196V81.2265H51.4196ZM51.4196 72.8539V70.8539H49.4196V72.8539H51.4196ZM66.2074 72.8539V74.8539H67.8731L68.1744 73.2157L66.2074 72.8539ZM69.9537 52.4842L68.0007 52.0532L67.993 52.0877L67.9867 52.1225L69.9537 52.4842ZM52.3551 20.4251L51.5488 22.2554L52.3551 20.4251ZM39.8526 17.722L38.9705 19.5169L39.3816 19.719L39.8397 19.722L39.8526 17.722ZM26.5546 13.4148V13.4148L28.319 9.82491C25.1336 8.25936 21.6388 11.3096 22.7591 14.6774L26.5546 13.4148ZM28.2301 18.4512L26.5546 13.4148L22.7591 14.6774L24.4346 19.7139L28.2301 18.4512ZM28.7418 19.9894L28.2301 18.4512L24.4346 19.7139L24.9463 21.252L28.7418 19.9894ZM16.195 34.2395C18.5384 28.9202 22.6646 24.8752 27.7181 22.4196L25.9699 18.8219C20.1257 21.6617 15.2868 26.3794 12.5345 32.6268L16.195 34.2395ZM30.0505 67.8728C16.802 61.359 10.7953 46.4965 16.195 34.2395L12.5345 32.6268C6.15347 47.1114 13.3849 64.1363 28.2856 71.4624L30.0505 67.8728ZM31.1681 81.8875V69.6676H27.1681V81.8875H31.1681ZM36.8791 79.8875H29.1681V83.8875H36.8791V79.8875ZM34.8791 72.3134V81.8875H38.8791V72.3134H34.8791ZM43.6692 70.9431C41.5646 70.9847 39.4215 70.7934 37.281 70.3542L36.4771 74.2726C38.9086 74.7715 41.3478 74.9897 43.7481 74.9424L43.6692 70.9431ZM45.7086 81.2265V72.9427H41.7086V81.2265H45.7086ZM51.4196 79.2265H43.7086V83.2265H51.4196V79.2265ZM49.4196 72.8539V81.2265H53.4196V72.8539H49.4196ZM66.2074 70.8539H51.4196V74.8539H66.2074V70.8539ZM67.9867 52.1225L64.2404 72.4921L68.1744 73.2157L71.9207 52.846L67.9867 52.1225ZM51.5488 22.2554C63.9973 27.7394 70.5572 40.4687 68.0007 52.0532L71.9067 52.9152C74.9136 39.2898 67.1805 24.7708 53.1614 18.5948L51.5488 22.2554ZM39.8397 19.722C43.7131 19.7469 47.7006 20.56 51.5488 22.2554L53.1614 18.5948C48.8097 16.6777 44.2819 15.7505 39.8655 15.7221L39.8397 19.722ZM26.5546 13.4148L38.9705 19.5169L40.7348 15.9271L28.319 9.82491L26.5546 13.4148Z" fill="#3A3A3C" mask="url(#path-77-outside-2_526_32808)"/>
<rect x="33.3633" y="34.7946" width="2.20313" height="13.2188" fill="#3A3A3C"/>
<path fill-rule="evenodd" clip-rule="evenodd" d="M38.871 31.4902H37.7694V32.5912H36.6679V33.6932H35.5669V48.0135H36.6679V49.1147H37.7694V50.2168H38.871V31.4902ZM38.8714 31.4902H39.9724H39.9729H41.074V50.2168H39.9729H39.9724H38.8714V31.4902ZM41.0743 31.4902H41.9555H42.1759H43.057H43.0571H45.2602V34.7946H47.4631V49.115H45.2602V50.2168H43.0571H43.057H42.1759H41.9555H41.0743V31.4902Z" fill="#BBBBBB"/>
<rect x="47.4639" y="34.7946" width="2.20313" height="13.2188" fill="#3A3A3C"/>
<rect x="35.5669" y="48.0134" width="2.20313" height="2.20313" fill="#3A3A3C"/>
<rect x="45.2598" y="48.0134" width="2.20313" height="2.20313" fill="#3A3A3C"/>
<rect x="45.2598" y="32.5912" width="2.20313" height="2.20313" fill="#3A3A3C"/>
<rect x="35.5669" y="32.5912" width="2.20313" height="2.20313" fill="#3A3A3C"/>
<rect x="43.0571" y="30.3882" width="2.20313" height="5.28752" transform="rotate(90 43.0571 30.3882)" fill="#3A3A3C"/>
<rect x="43.0571" y="50.2164" width="2.20313" height="5.28752" transform="rotate(90 43.0571 50.2164)" fill="#3A3A3C"/>
<rect x="43.0571" y="50.2164" width="2.20313" height="2.20313" fill="#3A3A3C"/>
<rect x="43.0571" y="30.3882" width="2.20313" height="2.20313" fill="#3A3A3C"/>
<rect x="19.2637" y="34.7946" width="2.20313" height="13.2188" fill="#3A3A3C"/>
<path fill-rule="evenodd" clip-rule="evenodd" d="M24.7713 31.4902H23.6702V50.2168H24.7713H24.7718H25.8728V31.4902H24.7718H24.7713ZM22.5683 32.5912H23.6699V49.1147H22.5683V48.0135H21.4668V33.6932H22.5683V32.5912ZM26.9748 31.4902H25.8732V50.2168H26.9748V31.4902ZM26.9751 31.4902H27.8559H28.0767H28.9575V50.2168H28.0767H27.8559H26.9751V31.4902ZM28.9578 31.4902H31.161V34.7946H33.3639V49.115H31.161V50.2168H28.9578V31.4902Z" fill="#BBBBBB"/>
<rect x="23.8906" y="32.3714" width="2.64376" height="13.2188" fill="#3A3A3C"/>
<rect x="26.5342" y="32.3714" width="2.64376" height="13.2188" fill="#3A3A3C"/>
<rect x="33.3638" y="34.7946" width="2.20313" height="13.2188" fill="#3A3A3C"/>
<rect x="31.1606" y="48.0134" width="2.20313" height="2.20313" fill="#3A3A3C"/>
<rect x="31.1606" y="32.5912" width="2.20313" height="2.20313" fill="#3A3A3C"/>
<rect x="21.2466" y="32.3714" width="2.64376" height="18.5063" fill="#3A3A3C"/>
<rect x="28.958" y="30.3882" width="2.20313" height="5.28752" transform="rotate(90 28.958 30.3882)" fill="#3A3A3C"/>
<rect x="28.958" y="50.2164" width="2.20313" height="5.28752" transform="rotate(90 28.958 50.2164)" fill="#3A3A3C"/>
<rect x="28.958" y="50.2164" width="2.20313" height="2.20313" fill="#3A3A3C"/>
<rect x="28.958" y="30.3882" width="2.20313" height="2.20313" fill="#3A3A3C"/>
<rect x="33.3633" y="55.7241" width="2.20313" height="2.20313" transform="rotate(90 33.3633 55.7241)" fill="#3A3A3C"/>
<rect x="35.5669" y="53.5211" width="2.20313" height="2.20313" transform="rotate(90 35.5669 53.5211)" fill="#3A3A3C"/>
<rect x="37.77" y="53.5211" width="2.20313" height="2.20313" transform="rotate(90 37.77 53.5211)" fill="#3A3A3C"/>
<rect x="39.9727" y="55.7241" width="2.20313" height="2.20313" transform="rotate(90 39.9727 55.7241)" fill="#3A3A3C"/>
<path d="M25.6412 67.6636C18.1308 68.5142 13.0021 65.4497 9.66906 61.9431C9.23385 61.4852 9.07383 60.8366 9.20883 60.2194L9.53581 58.7247C9.78955 57.5647 10.5455 56.5774 11.5992 56.03L13.1399 55.2295C16.3431 53.5646 16.5713 56.6894 21.1304 60.0865C25.9828 62.2329 33.6782 66.7533 25.6412 67.6636Z" fill="#6F6F73"/>
<g clip-path="url(#clip3_526_32808)">
<rect x="14.8862" y="42.4089" width="1.66667" height="1.66667" transform="rotate(-180 14.8862 42.4089)" fill="#3A3A3C"/>
<rect x="14.8862" y="44.0756" width="1.66667" height="1.66667" transform="rotate(-180 14.8862 44.0756)" fill="#3A3A3C"/>
<rect x="14.8862" y="45.7422" width="1.66667" height="1.66667" transform="rotate(-180 14.8862 45.7422)" fill="#3A3A3C"/>
<rect x="13.2192" y="44.0756" width="1.66667" height="1.66667" transform="rotate(-180 13.2192 44.0756)" fill="#3A3A3C"/>
<rect opacity="0.5" x="13.2192" y="42.4089" width="0.833333" height="0.833333" transform="rotate(-180 13.2192 42.4089)" fill="#3A3A3C"/>
<rect opacity="0.5" x="13.2192" y="44.9089" width="0.833333" height="0.833333" transform="rotate(-180 13.2192 44.9089)" fill="#3A3A3C"/>
<rect opacity="0.5" x="15.7192" y="42.4089" width="0.833333" height="0.833333" transform="rotate(-180 15.7192 42.4089)" fill="#3A3A3C"/>
<rect opacity="0.5" x="15.7192" y="44.9089" width="0.833333" height="0.833333" transform="rotate(-180 15.7192 44.9089)" fill="#3A3A3C"/>
<rect x="16.5527" y="44.0756" width="1.66667" height="1.66667" transform="rotate(-180 16.5527 44.0756)" fill="#3A3A3C"/>
</g>
<rect x="37.7695" y="24.66" width="2.20313" height="2.20313" transform="rotate(90 37.7695 24.66)" fill="#3A3A3C"/>
<rect x="39.9722" y="22.457" width="2.20313" height="2.20313" transform="rotate(90 39.9722 22.457)" fill="#3A3A3C"/>
<rect x="33.3633" y="24.66" width="2.20313" height="2.20313" transform="rotate(90 33.3633 24.66)" fill="#3A3A3C"/>
<rect x="31.1606" y="22.457" width="2.20313" height="2.20313" transform="rotate(90 31.1606 22.457)" fill="#3A3A3C"/>
<rect x="35.5659" y="26.8625" width="2.20313" height="2.20313" transform="rotate(90 35.5659 26.8625)" fill="#3A3A3C"/>
<rect width="2.20313" height="7.49068" transform="matrix(4.37112e-08 1 1 -4.37112e-08 35.7866 40.7425)" fill="#3A3A3C"/>
<rect width="2.20313" height="2.20314" transform="matrix(4.37112e-08 1 1 -4.37112e-08 37.9897 38.5395)" fill="#3A3A3C"/>
<rect width="2.20313" height="2.20314" transform="matrix(4.37112e-08 1 1 -4.37112e-08 40.1919 36.3361)" fill="#3A3A3C"/>
<rect width="2.20313" height="2.20314" transform="matrix(4.37112e-08 1 1 -4.37112e-08 37.5708 42.9233)" fill="#3A3A3C"/>
<rect width="2.20313" height="2.20314" transform="matrix(4.37112e-08 1 1 -4.37112e-08 40.1919 45.1489)" fill="#3A3A3C"/>
</g>
<path fill-rule="evenodd" clip-rule="evenodd" d="M51.3454 41.8629C47.9333 54.597 34.8443 62.1539 22.1102 58.7419C9.37608 55.3298 1.8191 42.2407 5.2312 29.5066C8.64329 16.7725 21.7324 9.21554 34.4664 12.6276C47.2005 16.0397 54.7575 29.1288 51.3454 41.8629ZM21.7637 60.719C35.5107 64.3039 49.5946 56.1245 53.2773 42.3805C56.9753 28.5795 48.7851 14.3937 34.9841 10.6958C21.1831 6.9978 6.99732 15.1879 3.29934 28.989C-0.240013 42.198 7.11078 55.7595 19.8481 60.1408L17.1171 70.3331L19.0489 70.8507L21.7637 60.719Z" fill="#3A3A3C"/>
</g>
<defs>
<clipPath id="clip0_526_32808">
<rect width="80" height="80" fill="white"/>
</clipPath>
<clipPath id="clip1_526_32808">
<rect width="5.86114" height="5.86114" fill="white" transform="translate(53.6069 46.4712)"/>
</clipPath>
<clipPath id="clip2_526_32808">
<rect width="5.86114" height="5.86114" fill="white" transform="translate(16.4858 46.4712)"/>
</clipPath>
<clipPath id="clip3_526_32808">
<rect width="6.6094" height="6.6094" fill="white" transform="translate(11.5527 40.7422)"/>
</clipPath>
</defs>
</svg>
