<svg width="24" height="24" viewBox="0 0 24 24" fill="none" xmlns="http://www.w3.org/2000/svg">
<g id="icon/Task&#230;&#150;&#135;&#228;&#187;&#182;">
<path id="Union" d="M9 12H16V13H9V12Z" fill="#81FF00"/>
<g id="Subtract">
<mask id="path-3-inside-1_314_4453" fill="white">
<path fill-rule="evenodd" clip-rule="evenodd" d="M15.4645 4H8C6.89543 4 6 4.89543 6 6V18C6 19.1046 6.89543 20 8 20H16.8C17.9046 20 18.8 19.1046 18.8 18V7.33552L15.4645 4Z"/>
</mask>
<path d="M15.4645 4L16.1716 3.29289L15.8787 3H15.4645V4ZM18.8 7.33552H19.8V6.92131L19.5071 6.62842L18.8 7.33552ZM8 5H15.4645V3H8V5ZM7 6C7 5.44772 7.44772 5 8 5V3C6.34315 3 5 4.34315 5 6H7ZM7 18V6H5V18H7ZM8 19C7.44772 19 7 18.5523 7 18H5C5 19.6569 6.34315 21 8 21V19ZM16.8 19H8V21H16.8V19ZM17.8 18C17.8 18.5523 17.3523 19 16.8 19V21C18.4569 21 19.8 19.6569 19.8 18H17.8ZM17.8 7.33552V18H19.8V7.33552H17.8ZM19.5071 6.62842L16.1716 3.29289L14.7574 4.70711L18.0929 8.04263L19.5071 6.62842Z" fill="#81FF00" mask="url(#path-3-inside-1_314_4453)"/>
</g>
</g>
</svg>
