<svg width="14" height="13" viewBox="0 0 14 13" fill="none" xmlns="http://www.w3.org/2000/svg">
<g id="Group 13255">
<path id="Union" fill-rule="evenodd" clip-rule="evenodd" d="M9.50004 0H4.50004V1H9.50004V0ZM13.6667 3.00008H0.333374V4.00008H13.6667V3.00008Z" fill="#FF453A"/>
<g id="Subtract">
<mask id="path-2-inside-1_344_1607" fill="white">
<path fill-rule="evenodd" clip-rule="evenodd" d="M2.15393 2.99976H3.33337H11.3334H11.8462L11.1292 11.4735C11.0562 12.3365 10.3345 12.9997 9.46848 12.9997H4.53168C3.66568 12.9997 2.94396 12.3365 2.87094 11.4735L2.15393 2.99976Z"/>
</mask>
<path d="M2.15393 2.99976V1.99976H1.06574L1.15749 3.08407L2.15393 2.99976ZM11.8462 2.99976L12.8427 3.08407L12.9344 1.99976H11.8462V2.99976ZM11.1292 11.4735L12.1257 11.5579L11.1292 11.4735ZM2.87094 11.4735L3.86738 11.3892L2.87094 11.4735ZM2.15393 3.99976H3.33337V1.99976H2.15393V3.99976ZM3.33337 3.99976H11.3334V1.99976H3.33337V3.99976ZM11.3334 3.99976H11.8462V1.99976H11.3334V3.99976ZM10.8498 2.91544L10.1328 11.3892L12.1257 11.5579L12.8427 3.08407L10.8498 2.91544ZM10.1328 11.3892C10.1036 11.7344 9.81488 11.9997 9.46848 11.9997V13.9997C10.8541 13.9997 12.0088 12.9385 12.1257 11.5579L10.1328 11.3892ZM9.46848 11.9997H4.53168V13.9997H9.46848V11.9997ZM4.53168 11.9997C4.18528 11.9997 3.89659 11.7344 3.86738 11.3892L1.8745 11.5579C1.99133 12.9385 3.14608 13.9997 4.53168 13.9997V11.9997ZM3.86738 11.3892L3.15037 2.91544L1.15749 3.08407L1.8745 11.5579L3.86738 11.3892Z" fill="#FF453A" mask="url(#path-2-inside-1_344_1607)"/>
</g>
</g>
</svg>
