<svg width="20" height="20" viewBox="0 0 20 20" fill="none" xmlns="http://www.w3.org/2000/svg">
<g id="&#228;&#184;&#187;&#233;&#161;&#181;">
<path id="Vector 77" d="M5.83337 8.33325V14.9999C5.83337 15.9204 6.57957 16.6666 7.50004 16.6666H12.5C13.4205 16.6666 14.1667 15.9204 14.1667 14.9999V8.33325" stroke="white" stroke-width="0.833333"/>
<g id="Subtract">
<mask id="path-2-inside-1_90_10494" fill="white">
<path fill-rule="evenodd" clip-rule="evenodd" d="M16.6667 10.0801L10 3.33325L3.33337 10.0801L3.95095 10.7051L10 4.58325L16.0491 10.7051L16.6667 10.0801Z"/>
</mask>
<path d="M10 3.33325L10.5928 2.74753L10 2.14763L9.40727 2.74753L10 3.33325ZM16.6667 10.0801L17.2595 10.6658L17.8382 10.0801L17.2595 9.49435L16.6667 10.0801ZM3.33337 10.0801L2.74061 9.49435L2.16184 10.0801L2.74061 10.6658L3.33337 10.0801ZM3.95095 10.7051L3.35818 11.2908L3.95095 11.8907L4.54371 11.2908L3.95095 10.7051ZM10 4.58325L10.5928 3.99753L10 3.39763L9.40727 3.99753L10 4.58325ZM16.0491 10.7051L15.4564 11.2908L16.0491 11.8907L16.6419 11.2908L16.0491 10.7051ZM9.40727 3.91898L16.0739 10.6658L17.2595 9.49435L10.5928 2.74753L9.40727 3.91898ZM3.92614 10.6658L10.5928 3.91898L9.40727 2.74753L2.74061 9.49435L3.92614 10.6658ZM4.54371 10.1194L3.92614 9.49435L2.74061 10.6658L3.35818 11.2908L4.54371 10.1194ZM4.54371 11.2908L10.5928 5.16898L9.40727 3.99753L3.35818 10.1194L4.54371 11.2908ZM9.40727 5.16898L15.4564 11.2908L16.6419 10.1194L10.5928 3.99753L9.40727 5.16898ZM16.0739 9.49435L15.4564 10.1194L16.6419 11.2908L17.2595 10.6658L16.0739 9.49435Z" fill="white" mask="url(#path-2-inside-1_90_10494)"/>
</g>
</g>
</svg>
