<svg width="14" height="14" viewBox="0 0 14 14" fill="none" xmlns="http://www.w3.org/2000/svg">
<g id="Group 13209">
<path id="Rectangle 5927" d="M14 2L14 3L6 3L6 2L14 2Z" fill="#81FF00"/>
<path id="Rectangle 5928" d="M14 12L14 13L6 13L6 12L14 12Z" fill="#81FF00"/>
<path id="Rectangle 5929" d="M14 7L14 8L6 8L6 7L14 7Z" fill="#81FF00"/>
<path id="Subtract" fill-rule="evenodd" clip-rule="evenodd" d="M0.707293 2.12132L0.000186205 2.82843L1.76795 4.59619L4.59638 1.76777L3.88927 1.06066L3.18217 1.76777L1.76795 3.18198L1.4144 2.82843L0.707293 2.12132Z" fill="#81FF00"/>
<path id="Subtract_2" fill-rule="evenodd" clip-rule="evenodd" d="M0.707293 6.718L0.000186205 7.42511L1.76795 9.19287L4.59638 6.36445L3.88927 5.65734L3.18217 6.36445L1.76795 7.77866L1.4144 7.42511L0.707293 6.718Z" fill="#81FF00"/>
<path id="Subtract_3" fill-rule="evenodd" clip-rule="evenodd" d="M0.707293 11.3147L0.000186205 12.0218L1.76795 13.7896L4.59638 10.9611L3.88927 10.254L3.18217 10.9611L1.76795 12.3753L1.4144 12.0218L0.707293 11.3147Z" fill="#81FF00"/>
</g>
</svg>
