<svg width="24" height="24" viewBox="0 0 24 24" fill="none" xmlns="http://www.w3.org/2000/svg">
<g id="&#229;&#177;&#143;&#229;&#185;&#149;&#230;&#136;&#170;&#229;&#155;&#190;&#229;&#189;&#149;&#229;&#136;&#182;">
<path id="Subtract" fill-rule="evenodd" clip-rule="evenodd" d="M18 5H5C4.44772 5 4 5.44772 4 6V10.1C3.6522 10.1706 3.3175 10.2773 3 10.416V6C3 4.89543 3.89543 4 5 4H18C19.1046 4 20 4.89543 20 6V17C20 18.1046 19.1046 19 18 19H8.00049C8.37908 18.7156 8.71597 18.3786 9.00037 18H18C18.5523 18 19 17.5523 19 17V15.685L16.5054 12.7746L14.3841 15.3201L14.0145 15.7636L13.6284 15.3345L9.4809 10.7262L8.63758 11.5695C8.40804 11.3262 8.15437 11.1059 7.88038 10.9125L9.14645 9.64645L9.5191 9.2738L9.87165 9.66552L13.9855 14.2364L16.1159 11.6799L16.4946 11.2254L16.8796 11.6746L19 14.1484V6C19 5.44772 18.5523 5 18 5Z" fill="white"/>
<circle id="Ellipse 623" cx="5" cy="15" r="3.5" stroke="white"/>
<circle id="Ellipse 625" cx="5" cy="15" r="1" fill="white"/>
</g>
</svg>
