<svg width="24" height="24" viewBox="0 0 24 24" fill="none" xmlns="http://www.w3.org/2000/svg">
<g id="icon/&#233;&#128;&#154;&#232;&#191;&#135;">
<path id="Ellipse 579 (Stroke)" fill-rule="evenodd" clip-rule="evenodd" d="M12 11C13.3807 11 14.5 9.88071 14.5 8.5C14.5 7.11929 13.3807 6 12 6C10.6193 6 9.5 7.11929 9.5 8.5C9.5 9.88071 10.6193 11 12 11ZM12 12C13.933 12 15.5 10.433 15.5 8.5C15.5 6.567 13.933 5 12 5C10.067 5 8.5 6.567 8.5 8.5C8.5 10.433 10.067 12 12 12Z" fill="#81FF00"/>
<path id="Subtract" fill-rule="evenodd" clip-rule="evenodd" d="M12 14C9.16127 14 6.62951 15.3143 4.97998 17.3675L5.97249 17.7397C7.43899 16.0607 9.59562 15 12 15V14Z" fill="#81FF00"/>
<path id="Subtract_2" fill-rule="evenodd" clip-rule="evenodd" d="M12 14C14.8387 14 17.3705 15.3143 19.02 17.3675L18.0275 17.7397C16.561 16.0607 14.4044 15 12 15V14Z" fill="#81FF00"/>
</g>
</svg>
