<svg width="90" height="90" viewBox="0 0 90 90" fill="none" xmlns="http://www.w3.org/2000/svg">
<g clip-path="url(#clip0_341_1729)">
<rect width="90" height="90" rx="18" fill="url(#paint0_linear_341_1729)"/>
<path d="M35.1419 16.3574H35.7634C38.3901 16.3566 41.0115 16.5914 43.5962 17.0591L66.3212 7.71339C67.691 7.14874 69.0298 8.5927 68.36 9.91512L62.7013 22.8815L78.6393 27.7893C79.9203 28.1832 80.0143 29.9608 78.7824 30.4875L70.7746 33.9125C76.4247 41.4552 79.4721 50.6289 79.4582 60.053V60.6737C79.4582 80.1082 63.7039 95.8634 44.2694 95.8634H-4.26503C-5.23741 95.8634 -6.16998 95.4771 -6.85756 94.7895C-7.54514 94.102 -7.93141 93.1694 -7.93141 92.197V59.4315C-7.93227 35.6427 11.3531 16.3574 35.1419 16.3574Z" fill="black"/>
<path d="M43.5128 53.4116H47.6309V57.5297H43.5128V53.4116Z" fill="black"/>
<path d="M40.3095 49.7521H44.4276V53.8702H40.3095V49.7521Z" fill="black"/>
<path d="M40.3095 56.6151H44.4276V60.7332H40.3095V56.6151Z" fill="black"/>
<path d="M36.1915 59.361H40.3096V63.4791H36.1915V59.361Z" fill="black"/>
<path d="M36.1915 47.0057H40.3096V51.1238H36.1915V47.0057Z" fill="black"/>
<path d="M30.759 29.9139H31.2061C33.7166 29.9142 36.148 30.7918 38.0796 32.3949C40.0112 33.9979 41.3214 36.2256 41.7835 38.6923C41.7903 38.7287 41.8096 38.7616 41.8382 38.7853C41.8667 38.809 41.9026 38.822 41.9397 38.822C41.9768 38.822 42.0128 38.809 42.0413 38.7853C42.0698 38.7616 42.0892 38.7287 42.096 38.6923C42.5581 36.2256 43.8683 33.9979 45.7999 32.3949C47.7315 30.7918 50.1629 29.9142 52.6733 29.9139H53.1205C55.9739 29.9139 58.7105 31.0471 60.7282 33.064C62.7459 35.081 63.8794 37.8166 63.8794 40.669V47.532C63.8794 50.3844 62.7459 53.12 60.7282 55.137C58.7105 57.1539 55.9739 58.287 53.1205 58.287H52.6733C50.1629 58.2867 47.7315 57.4091 45.7999 55.8061C43.8683 54.203 42.5581 51.9754 42.096 49.5087C42.0892 49.4723 42.0698 49.4393 42.0413 49.4157C42.0128 49.392 41.9768 49.379 41.9397 49.379C41.9026 49.379 41.8667 49.392 41.8382 49.4157C41.8096 49.4393 41.7903 49.4723 41.7835 49.5087C41.3214 51.9754 40.0112 54.203 38.0796 55.8061C36.148 57.4091 33.7166 58.2867 31.2061 58.287H30.759C29.3461 58.287 27.9471 58.0088 26.6417 57.4684C25.3364 56.9279 24.1503 56.1357 23.1513 55.137C22.1522 54.1383 21.3597 52.9526 20.8191 51.6478C20.2784 50.3429 20.0001 48.9444 20.0001 47.532V40.669C20.0001 39.2566 20.2784 37.8581 20.8191 36.5532C21.3597 35.2483 22.1522 34.0627 23.1513 33.064C24.1503 32.0653 25.3364 31.2731 26.6417 30.7326C27.9471 30.1921 29.3461 29.9139 30.759 29.9139Z" fill="white"/>
<path d="M47.6301 38.1781H48.8697C49.0224 38.1781 49.1689 38.1174 49.277 38.0094C49.3852 37.9013 49.446 37.7548 49.4462 37.6018V36.0171C49.4461 35.9414 49.4609 35.8663 49.4898 35.7963C49.5187 35.7263 49.5611 35.6627 49.6145 35.609C49.668 35.5554 49.7315 35.5129 49.8014 35.4839C49.8713 35.4549 49.9462 35.4399 50.0219 35.4399H55.8039C55.9568 35.4399 56.1035 35.5007 56.2116 35.609C56.3198 35.7172 56.3805 35.864 56.3805 36.0171V37.6018C56.3805 37.7547 56.4412 37.9013 56.5491 38.0093C56.6571 38.1174 56.8035 38.1781 56.9562 38.1781H58.1066C58.2594 38.1781 58.4059 38.2388 58.514 38.3468C58.6221 38.4549 58.683 38.6015 58.6832 38.7544V49.4693C58.683 49.6223 58.6221 49.7688 58.514 49.8769C58.4059 49.9849 58.2594 50.0456 58.1066 50.0456H56.9562C56.8035 50.0456 56.6571 50.1063 56.5491 50.2144C56.4412 50.3225 56.3805 50.469 56.3805 50.6219V52.2669C56.3805 52.3427 56.3656 52.4177 56.3366 52.4877C56.3076 52.5576 56.2651 52.6212 56.2116 52.6747C56.158 52.7283 56.0944 52.7707 56.0245 52.7996C55.9546 52.8285 55.8796 52.8433 55.8039 52.8432H50.0219C49.9463 52.8433 49.8714 52.8285 49.8015 52.7996C49.7316 52.7707 49.6681 52.7282 49.6146 52.6747C49.5611 52.6211 49.5187 52.5576 49.4898 52.4876C49.4609 52.4176 49.4461 52.3426 49.4462 52.2669V50.6255C49.446 50.4726 49.3852 50.326 49.277 50.2179C49.1689 50.1099 49.0224 50.0492 48.8697 50.0492H47.6301C47.4774 50.0492 47.3309 49.9885 47.2228 49.8805C47.1147 49.7724 47.0538 49.6259 47.0536 49.4729V38.758C47.0532 38.682 47.0679 38.6066 47.0967 38.5363C47.1255 38.4659 47.1679 38.402 47.2215 38.3481C47.2751 38.2942 47.3387 38.2515 47.4089 38.2223C47.479 38.1931 47.5542 38.1781 47.6301 38.1781Z" fill="black"/>
<path d="M37.888 60.7835V63.1717C37.888 63.2432 37.9167 63.3117 37.9677 63.3623C38.0188 63.4128 38.088 63.4412 38.1602 63.4412H45.8025C45.8747 63.4412 45.944 63.4128 45.995 63.3623C46.0461 63.3117 46.0748 63.2432 46.0748 63.1717V60.7835C46.0748 60.712 46.1034 60.6435 46.1545 60.593C46.2055 60.5424 46.2748 60.514 46.347 60.514H48.7607C48.8329 60.514 48.9022 60.5424 48.9532 60.593C49.0043 60.6435 49.033 60.712 49.033 60.7835V63.1717C49.033 63.2432 49.0043 63.3117 48.9532 63.3623C48.9022 63.4128 48.8329 63.4412 48.7607 63.4412H46.3896C46.3174 63.4412 46.2482 63.4696 46.1971 63.5201C46.1461 63.5706 46.1174 63.6392 46.1174 63.7106V66.1007C46.1174 66.1721 46.0887 66.2407 46.0377 66.2912C45.9866 66.3417 45.9174 66.3701 45.8452 66.3701H38.1457C38.0735 66.3701 38.0043 66.3417 37.9532 66.2912C37.9022 66.2407 37.8735 66.1721 37.8735 66.1007V63.7151C37.8735 63.6437 37.8448 63.5751 37.7937 63.5246C37.7427 63.4741 37.6735 63.4457 37.6013 63.4457H35.2011C35.1289 63.4457 35.0597 63.4173 35.0086 63.3668C34.9576 63.3162 34.9289 63.2477 34.9289 63.1762V60.7835C34.9289 60.712 34.9576 60.6435 35.0086 60.593C35.0597 60.5424 35.1289 60.514 35.2011 60.514H37.614C37.6499 60.5138 37.6855 60.5206 37.7187 60.534C37.7519 60.5475 37.7822 60.5673 37.8076 60.5923C37.8331 60.6174 37.8533 60.6472 37.8671 60.68C37.8809 60.7128 37.888 60.748 37.888 60.7835Z" fill="white"/>
<path d="M30.5716 42.0488V39.8007C30.5716 39.6471 30.5108 39.4999 30.4025 39.3913C30.2943 39.2827 30.1475 39.2217 29.9944 39.2217H27.7531C27.6772 39.2217 27.6021 39.2067 27.532 39.1775C27.4619 39.1484 27.3982 39.1057 27.3446 39.0518C27.291 38.9979 27.2485 38.934 27.2196 38.8636C27.1906 38.7933 27.1758 38.7179 27.1759 38.6418V35.9368C27.1758 35.8607 27.1906 35.7854 27.2196 35.7151C27.2486 35.6448 27.2911 35.5809 27.3447 35.5271C27.3983 35.4733 27.462 35.4307 27.5321 35.4016C27.6022 35.3726 27.6773 35.3577 27.7531 35.3578H30.4471C30.6002 35.3578 30.747 35.4188 30.8553 35.5274C30.9636 35.636 31.0244 35.7832 31.0244 35.9368V38.184C31.0242 38.2601 31.0391 38.3355 31.068 38.4059C31.097 38.4762 31.1395 38.5402 31.1931 38.594C31.2467 38.6479 31.3104 38.6906 31.3805 38.7198C31.4506 38.7489 31.5257 38.7639 31.6016 38.7639H33.8429C33.9959 38.7639 34.1428 38.8249 34.251 38.9335C34.3593 39.0421 34.4201 39.1894 34.4201 39.3429V41.5911C34.4203 41.7445 34.4812 41.8917 34.5894 42.0002C34.6976 42.1087 34.8443 42.1698 34.9973 42.1701H37.2386C37.3917 42.1701 37.5385 42.2311 37.6467 42.3396C37.755 42.4482 37.8158 42.5955 37.8158 42.7491V45.4513C37.8159 45.5274 37.8011 45.6028 37.7721 45.6731C37.7431 45.7434 37.7006 45.8072 37.647 45.861C37.5934 45.9148 37.5297 45.9575 37.4596 45.9865C37.3895 46.0156 37.3144 46.0305 37.2386 46.0303H34.9982C34.8452 46.0306 34.6985 46.0917 34.5903 46.2002C34.4821 46.3087 34.4212 46.4559 34.421 46.6093V48.8575C34.421 49.011 34.3602 49.1583 34.2519 49.2669C34.1437 49.3755 33.9968 49.4365 33.8438 49.4365H31.6025C31.5266 49.4365 31.4515 49.4515 31.3814 49.4806C31.3113 49.5098 31.2476 49.5525 31.194 49.6064C31.1404 49.6602 31.0979 49.7242 31.0689 49.7945C31.04 49.8649 31.0251 49.9403 31.0253 50.0164V52.2636C31.0253 52.4173 30.9645 52.5646 30.8563 52.6734C30.748 52.7821 30.6012 52.8433 30.448 52.8435H27.754C27.6781 52.8435 27.603 52.8285 27.5329 52.7994C27.4628 52.7702 27.3991 52.7275 27.3455 52.6736C27.2919 52.6198 27.2494 52.5558 27.2205 52.4855C27.1915 52.4151 27.1767 52.3397 27.1768 52.2636V49.5659C27.1767 49.4897 27.1915 49.4144 27.2205 49.344C27.2494 49.2737 27.2919 49.2097 27.3455 49.1559C27.3991 49.102 27.4628 49.0593 27.5329 49.0301C27.603 49.001 27.6781 48.986 27.754 48.986H29.9944C30.1475 48.986 30.2943 48.925 30.4025 48.8164C30.5108 48.7078 30.5716 48.5605 30.5716 48.407V46.1597C30.5716 46.0062 30.6324 45.8589 30.7407 45.7503C30.8489 45.6417 30.9957 45.5807 31.1488 45.5807H33.3901C33.5431 45.5805 33.6898 45.5194 33.798 45.4109C33.9062 45.3023 33.9671 45.1552 33.9673 45.0017V43.2068C33.9671 43.0533 33.9062 42.9062 33.798 42.7977C33.6898 42.6891 33.5431 42.6281 33.3901 42.6278H31.1488C30.9957 42.6278 30.8489 42.5668 30.7407 42.4582C30.6324 42.3497 30.5716 42.2024 30.5716 42.0488Z" fill="black"/>
<path d="M56.5 68C56.5 66.067 58.067 64.5 60 64.5H80C81.933 64.5 83.5 66.067 83.5 68V98C83.5 99.933 81.933 101.5 80 101.5H60C58.067 101.5 56.5 99.933 56.5 98V68Z" fill="url(#paint1_linear_341_1729)" stroke="white"/>
<path d="M73.4612 70.793C73.8114 70.4348 74.3868 70.4315 74.7411 70.7858L76.2988 72.3436C76.6475 72.6922 76.6507 73.2566 76.3059 73.6092L68.5142 81.578L65.3283 82.3385C65.0333 82.4089 64.7703 82.1383 64.8492 81.8454L65.6833 78.7478L73.4612 70.793Z" fill="black" stroke="white" stroke-width="0.2"/>
<path d="M65 85L75.5 85" stroke="black" stroke-width="2" stroke-linecap="round"/>
</g>
<defs>
<linearGradient id="paint0_linear_341_1729" x1="0" y1="45" x2="90" y2="45" gradientUnits="userSpaceOnUse">
<stop stop-color="#D5F163"/>
<stop offset="0.755208" stop-color="#E8FE93"/>
</linearGradient>
<linearGradient id="paint1_linear_341_1729" x1="70" y1="64" x2="70" y2="92" gradientUnits="userSpaceOnUse">
<stop stop-color="#EEFFAD"/>
<stop offset="1" stop-color="#EDEDED"/>
</linearGradient>
<clipPath id="clip0_341_1729">
<rect width="90" height="90" rx="18" fill="white"/>
</clipPath>
</defs>
</svg>
