<svg width="30" height="30" viewBox="0 0 30 30" fill="none" xmlns="http://www.w3.org/2000/svg">
<g id="icon/&#231;&#179;&#187;&#231;&#187;&#159;&#233;&#128;&#154;&#231;&#159;&#165;&#231;&#187;&#147;&#230;&#157;&#159;&#231;&#173;&#155;&#233;&#128;&#137;">
<path id="Polygon 12" d="M19.2036 18.5136L6.62277 22.7742L10.8833 10.1934L19.2036 18.5136Z" stroke="#81FF00" stroke-width="1.25"/>
<rect id="Rectangle 5914" x="18.0938" y="11.1982" width="3.75" height="1.25" transform="rotate(-45 18.0938 11.1982)" fill="#81FF00"/>
<rect id="Rectangle 5918" x="15" y="9.87183" width="3.75" height="1.25" transform="rotate(-75 15 9.87183)" fill="#81FF00"/>
<rect id="Rectangle 5920" x="20" y="6.25" width="1.25" height="1.25" transform="rotate(-90 20 6.25)" fill="#81FF00"/>
<rect id="Rectangle 5923" x="23.75" y="11.25" width="1.25" height="1.25" transform="rotate(-90 23.75 11.25)" fill="#81FF00"/>
<rect id="Rectangle 5922" x="11.25" y="6.25" width="1.25" height="1.25" transform="rotate(-90 11.25 6.25)" fill="#81FF00"/>
<rect id="Rectangle 5921" x="23.75" y="18.75" width="1.25" height="1.25" transform="rotate(-90 23.75 18.75)" fill="#81FF00"/>
<rect id="Rectangle 5919" width="3.75" height="1.25" transform="matrix(0.965926 -0.258819 -0.258819 -0.965926 20.627 15.4993)" fill="#81FF00"/>
</g>
</svg>
