<svg width="24" height="24" viewBox="0 0 24 24" fill="none" xmlns="http://www.w3.org/2000/svg">
<g id="&#230;&#143;&#144;&#233;&#151;&#174;">
<g id="Union">
<mask id="path-1-inside-1_89_8829" fill="white">
<path fill-rule="evenodd" clip-rule="evenodd" d="M12.5 20C17.1944 20 21 16.1944 21 11.5C21 6.80558 17.1944 3 12.5 3C7.80558 3 4 6.80558 4 11.5C4 13.0601 4.42029 14.522 5.15383 15.7787L4.46092 18.3647C4.26168 19.1082 4.94209 19.7887 5.68566 19.5894L8.29684 18.8897C9.53643 19.5963 10.9711 20 12.5 20Z"/>
</mask>
<path d="M5.15383 15.7787L6.11975 16.0375L6.22768 15.6347L6.01747 15.2746L5.15383 15.7787ZM4.46092 18.3647L5.42684 18.6235H5.42684L4.46092 18.3647ZM5.68566 19.5894L5.94448 20.5553L5.94448 20.5553L5.68566 19.5894ZM8.29684 18.8897L8.79205 18.021L8.435 17.8175L8.03802 17.9238L8.29684 18.8897ZM20 11.5C20 15.6421 16.6421 19 12.5 19V21C17.7467 21 22 16.7467 22 11.5H20ZM12.5 4C16.6421 4 20 7.35786 20 11.5H22C22 6.25329 17.7467 2 12.5 2V4ZM5 11.5C5 7.35786 8.35786 4 12.5 4V2C7.25329 2 3 6.25329 3 11.5H5ZM6.01747 15.2746C5.37081 14.1667 5 12.8782 5 11.5H3C3 13.242 3.46977 14.8773 4.29018 16.2828L6.01747 15.2746ZM5.42684 18.6235L6.11975 16.0375L4.1879 15.5199L3.49499 18.1058L5.42684 18.6235ZM5.42684 18.6235H5.42684L3.49499 18.1058C3.09651 19.593 4.45734 20.9538 5.94448 20.5553L5.42684 18.6235ZM8.03802 17.9238L5.42684 18.6235L5.94448 20.5553L8.55566 19.8557L8.03802 17.9238ZM12.5 19C11.1493 19 9.88475 18.6438 8.79205 18.021L7.80163 19.7585C9.18812 20.5488 10.7929 21 12.5 21V19Z" fill="white" mask="url(#path-1-inside-1_89_8829)"/>
</g>
<path id="&#239;&#188;&#159;" d="M12.5973 8C13.3295 8 13.913 8.18681 14.3593 8.58242C14.7826 8.95604 15 9.47253 15 10.1319C15 10.6264 14.8513 11.0549 14.5652 11.4176C14.4508 11.5495 14.1419 11.8352 13.6384 12.2637C13.3867 12.4725 13.2151 12.6703 13.1007 12.8681C12.9519 13.1099 12.8833 13.3736 12.8833 13.6703V13.9231H11.968V13.6703C11.968 13.3077 12.0366 12.989 12.1739 12.7143C12.3341 12.3846 12.7117 11.967 13.3295 11.4396C13.5126 11.2637 13.6499 11.1319 13.7185 11.044C13.9474 10.7692 14.0618 10.4835 14.0618 10.1758C14.0618 9.73626 13.9245 9.3956 13.6728 9.15385C13.4096 8.89011 13.032 8.76923 12.5515 8.76923C11.9794 8.76923 11.5561 8.94506 11.2815 9.30769C11.0297 9.61538 10.9039 10.033 10.9039 10.5714H10C10 9.8022 10.2174 9.18681 10.6751 8.72527C11.1327 8.24176 11.7735 8 12.5973 8ZM12.4256 14.6923C12.6201 14.6923 12.7918 14.7473 12.9291 14.8791C13.0549 15 13.1236 15.1538 13.1236 15.3407C13.1236 15.5385 13.0549 15.6923 12.9176 15.8132C12.7803 15.9341 12.6201 16 12.4256 16C12.2311 16 12.0709 15.9341 11.9336 15.8132C11.7963 15.6813 11.7391 15.5275 11.7391 15.3407C11.7391 15.1538 11.7963 15 11.9336 14.8791C12.0709 14.7473 12.2311 14.6923 12.4256 14.6923Z" fill="white"/>
</g>
</svg>
