<svg width="136" height="19" viewBox="0 0 136 19" fill="none" xmlns="http://www.w3.org/2000/svg">
<g id="Group 13267">
<g id="TS">
<path id="Vector" d="M23.5068 15.9359C24.0508 15.1199 24.4988 14.3599 24.8508 13.6559C25.2188 12.9519 25.5708 12.1359 25.9068 11.2079C27.0428 11.8639 28.3628 12.3759 29.8668 12.7439C31.3708 13.1119 32.7708 13.2959 34.0668 13.2959C35.3948 13.2959 36.3308 13.1839 36.8748 12.9599C37.4188 12.7199 37.6908 12.4639 37.6908 12.1919C37.6908 11.2159 36.2028 10.7279 33.2268 10.7279C29.9628 10.7279 27.5948 10.3919 26.1228 9.71995C24.6508 9.03195 23.9148 7.92795 23.9148 6.40795C23.9148 4.24795 24.8108 2.65595 26.6028 1.63195C28.3948 0.607947 30.7228 0.0959473 33.5868 0.0959473C35.2508 0.0959473 36.9548 0.311948 38.6988 0.743948C40.4588 1.15995 42.0428 1.73595 43.4508 2.47195C42.9868 3.52795 42.4988 4.81595 41.9868 6.33595C41.8908 6.65595 41.8108 6.89595 41.7468 7.05595C40.9308 6.39995 39.6988 5.85595 38.0508 5.42395C36.4028 4.97595 34.9468 4.75195 33.6828 4.75195C32.1628 4.75195 31.1388 4.85595 30.6108 5.06395C30.0828 5.25595 29.8188 5.54395 29.8188 5.92795C29.8188 6.31195 30.1788 6.62395 30.8988 6.86395C31.6348 7.08795 32.6908 7.19995 34.0668 7.19995C37.4588 7.19995 39.9228 7.59195 41.4588 8.37595C42.9948 9.14395 43.7628 10.3279 43.7628 11.9279C43.7628 14.1679 42.9468 15.7839 41.3148 16.7759C39.6828 17.7519 37.2108 18.2399 33.8988 18.2399C32.1228 18.2399 30.3148 18.0479 28.4748 17.6639C26.6348 17.2639 24.9788 16.688 23.5068 15.9359Z" fill="white"/>
<path id="Vector_2" d="M21.576 5.61593C19.064 5.53593 16.624 5.48793 14.256 5.47193V17.9999H8.25596V5.47193C5.87196 5.48793 3.43996 5.53593 0.959961 5.61593V0.575928H21.576V5.61593Z" fill="white"/>
</g>
<g id="Tutor">
<path id="Vector_3" d="M128.739 8.4481C129.411 6.0321 131.083 4.8241 133.755 4.8241C134.219 4.8241 134.667 4.8561 135.099 4.9201L134.331 10.2961C133.179 9.8641 132.235 9.6481 131.499 9.6481C130.587 9.6481 129.915 9.9201 129.483 10.4641C129.051 11.0081 128.835 11.7361 128.835 12.6481V12.6241L128.811 14.2081C128.811 15.3441 128.843 16.6081 128.907 18.0001H123.171C123.299 15.6961 123.363 13.5201 123.363 11.4721C123.363 9.4241 123.299 7.2321 123.171 4.8961C124.227 4.9441 125.035 4.9681 125.595 4.9681C126.187 4.9681 126.995 4.9441 128.019 4.8961L128.739 8.4481Z" fill="white"/>
<path id="Vector_4" d="M113.227 18.24C110.491 18.24 108.475 17.616 107.179 16.368C105.899 15.104 105.259 13.448 105.259 11.4C105.259 9.40001 105.899 7.77601 107.179 6.52801C108.475 5.28001 110.491 4.65601 113.227 4.65601C115.067 4.65601 116.603 4.96001 117.835 5.56801C119.083 6.16001 120.003 6.96801 120.595 7.99201C121.187 9.00001 121.483 10.136 121.483 11.4C121.483 13.464 120.795 15.12 119.419 16.368C118.059 17.616 115.995 18.24 113.227 18.24ZM113.323 14.16C114.363 14.16 115.139 13.912 115.651 13.416C116.163 12.92 116.419 12.256 116.419 11.424C116.419 10.64 116.163 10 115.651 9.50401C115.139 8.99201 114.363 8.73601 113.323 8.73601C112.283 8.73601 111.523 8.98401 111.043 9.48001C110.563 9.97601 110.323 10.624 110.323 11.424C110.323 12.256 110.563 12.92 111.043 13.416C111.523 13.912 112.283 14.16 113.323 14.16Z" fill="white"/>
<path id="Vector_5" d="M104.066 9.1921C102.594 9.0961 101.25 9.0241 100.034 8.9761L100.01 11.5201C100.01 12.3841 100.194 13.0641 100.562 13.5601C100.946 14.0401 101.618 14.2801 102.578 14.2801C102.946 14.2801 103.298 14.2481 103.634 14.1841C103.57 14.7761 103.538 15.3761 103.538 15.9841C103.538 16.2721 103.554 16.9281 103.586 17.9521C102.882 18.0801 102.29 18.1601 101.81 18.1921C101.33 18.2241 100.706 18.2401 99.9384 18.2401C98.0664 18.2401 96.7384 17.7921 95.9544 16.8961C95.1864 15.9841 94.8024 14.7201 94.8024 13.1041L94.8264 9.0481C94.0744 9.0801 93.2904 9.1281 92.4744 9.1921V4.9441C93.3064 4.9441 94.0104 4.6801 94.5864 4.1521C95.1624 3.6241 95.5064 2.9921 95.6184 2.2561H102.146C101.33 3.3761 100.426 4.2721 99.4344 4.9441H104.066V9.1921Z" fill="white"/>
<path id="Vector_6" d="M91.2668 4.896C91.1548 6.912 91.0988 9.088 91.0988 11.424C91.0988 13.776 91.1548 15.968 91.2668 18C90.2428 17.952 89.4348 17.928 88.8428 17.928C88.2828 17.928 87.4748 17.952 86.4188 18L85.7228 14.472C85.3548 15.752 84.7788 16.704 83.9948 17.328C83.2108 17.936 82.2988 18.24 81.2588 18.24C80.2988 18.24 79.4668 18.032 78.7628 17.616C78.0588 17.184 77.5228 16.608 77.1548 15.888C76.8028 15.168 76.6268 14.36 76.6268 13.464V10.008C76.6268 7.88 76.5868 6.176 76.5068 4.896H81.9068C81.8108 7.248 81.7628 9.576 81.7628 11.88C81.7628 12.584 81.9308 13.144 82.2668 13.56C82.6188 13.976 83.0588 14.184 83.5868 14.184C84.0828 14.184 84.5148 13.968 84.8828 13.536C85.2668 13.088 85.4988 12.48 85.5788 11.712V11.16C85.6108 9.912 85.6268 9.048 85.6268 8.568C85.6268 7.464 85.5948 6.24 85.5308 4.896H91.2668Z" fill="white"/>
<path id="Vector_7" d="M74.576 5.61605C72.064 5.53605 69.624 5.48805 67.256 5.47205V18H61.256V5.47205C58.872 5.48805 56.44 5.53605 53.96 5.61605V0.57605H74.576V5.61605Z" fill="white"/>
</g>
</g>
</svg>
